<svg xmlns="http://www.w3.org/2000/svg" fill="none" viewBox="0 0 145 37">
    <path stroke="#A3E635" stroke-linecap="round" stroke-linejoin="round" stroke-width="2"
        d="M8.344 25.125a12 12 0 1 0 7.133-18.857" />
    <path stroke="#A3E635" stroke-linecap="round" stroke-linejoin="round" stroke-width="2"
        d="M11.75 22.938a8 8 0 1 0 4.755-12.572" />
    <path stroke="#A3E635" stroke-linecap="round" stroke-linejoin="round" stroke-width="2"
        d="M22.055 16.59a4 4 0 1 0-3.058 5.983" />
    <path fill="#fff"
        d="M42.332 24V11.22h2.484V24h-2.484Zm13.682 0h-2.412v-5.292c0-.756-.132-1.308-.396-1.656-.264-.348-.63-.522-1.098-.522-.324 0-.654.084-.99.252a3.036 3.036 0 0 0-.882.702 2.634 2.634 0 0 0-.576 1.008V24h-2.412v-9.432h2.178v1.746c.348-.588.852-1.05 1.512-1.386.66-.348 1.404-.522 2.232-.522.588 0 1.068.108 1.44.324.372.204.66.486.864.846.204.348.342.744.414 1.188.084.444.126.894.126 1.35V24Zm4.477 0-3.474-9.432h2.502l2.377 7.236 2.394-7.236h2.285L63.12 24h-2.627Zm11.398.18c-1.031 0-1.92-.222-2.663-.666a4.684 4.684 0 0 1-1.692-1.8 5.055 5.055 0 0 1-.595-2.412c0-.876.199-1.686.595-2.43a4.688 4.688 0 0 1 1.71-1.782c.743-.456 1.626-.684 2.645-.684 1.02 0 1.897.228 2.629.684a4.517 4.517 0 0 1 1.71 1.782c.396.744.594 1.554.594 2.43 0 .864-.198 1.668-.594 2.412a4.643 4.643 0 0 1-1.71 1.8c-.733.444-1.609.666-2.629.666Zm-2.465-4.878c0 .552.107 1.044.323 1.476.216.42.51.75.882.99s.792.36 1.26.36c.457 0 .87-.12 1.243-.36.371-.252.665-.588.881-1.008.228-.432.343-.924.343-1.476 0-.54-.114-1.02-.343-1.44a2.497 2.497 0 0 0-.882-1.008 2.166 2.166 0 0 0-1.242-.378c-.468 0-.888.126-1.26.378-.372.24-.666.576-.882 1.008-.216.42-.323.906-.323 1.458Zm9.026-6.048V10.86h2.412v2.394H78.45Zm0 10.746v-9.432h2.412V24H78.45Zm8.98.18c-1.02 0-1.903-.228-2.647-.684a4.78 4.78 0 0 1-1.728-1.8 4.936 4.936 0 0 1-.612-2.412c0-.876.198-1.686.594-2.43a4.648 4.648 0 0 1 1.728-1.782c.745-.444 1.626-.666 2.647-.666 1.031 0 1.907.222 2.627.666.733.444 1.278 1.026 1.638 1.746l-2.358.72c-.42-.72-1.062-1.08-1.925-1.08-.469 0-.889.12-1.26.36a2.37 2.37 0 0 0-.883.99c-.216.42-.324.912-.324 1.476 0 .552.108 1.044.324 1.476.228.42.528.756.9 1.008.373.24.787.36 1.243.36.431 0 .828-.102 1.188-.306.372-.216.63-.486.774-.81l2.358.72c-.325.708-.864 1.296-1.62 1.764-.744.456-1.632.684-2.664.684Zm10.054 0c-1.02 0-1.902-.222-2.646-.666a4.727 4.727 0 0 1-1.71-1.764 4.936 4.936 0 0 1-.612-2.412c0-.888.198-1.704.594-2.448a4.613 4.613 0 0 1 1.728-1.8c.744-.456 1.632-.684 2.664-.684 1.032 0 1.914.228 2.646.684a4.427 4.427 0 0 1 1.674 1.782c.396.732.594 1.524.594 2.376 0 .312-.018.582-.054.81h-7.29c.06.732.33 1.308.81 1.728.492.42 1.056.63 1.692.63.48 0 .93-.114 1.35-.342.432-.24.726-.552.882-.936l2.07.576c-.348.72-.906 1.314-1.674 1.782-.768.456-1.674.684-2.718.684Zm-2.466-5.652h4.932c-.072-.708-.342-1.278-.81-1.71-.456-.444-1.014-.666-1.674-.666-.648 0-1.206.222-1.674.666-.456.432-.714 1.002-.774 1.71Zm16.337-7.308h2.52L118.573 24h-2.556l-1.188-3.186h-4.464L109.195 24h-2.556l4.716-12.78Zm3.024 7.848-1.764-5.274-1.836 5.274h3.6Zm11.014 5.112c-.744 0-1.392-.168-1.944-.504a3.629 3.629 0 0 1-1.296-1.332v5.49h-2.412V14.568h2.106v1.62a3.772 3.772 0 0 1 1.35-1.296c.564-.324 1.2-.486 1.908-.486.852 0 1.608.222 2.268.666a4.561 4.561 0 0 1 1.566 1.764c.384.732.576 1.542.576 2.43 0 .924-.18 1.758-.54 2.502a4.48 4.48 0 0 1-1.458 1.764c-.612.432-1.32.648-2.124.648Zm-.81-2.052c.492 0 .918-.132 1.278-.396.372-.276.66-.63.864-1.062a3.17 3.17 0 0 0 .324-1.404c0-.528-.114-1.002-.342-1.422a2.533 2.533 0 0 0-.936-1.008 2.372 2.372 0 0 0-1.332-.378c-.456 0-.912.15-1.368.45-.456.3-.762.678-.918 1.134v2.214c.216.528.546.972.99 1.332.444.36.924.54 1.44.54Zm12.218 2.052c-.744 0-1.392-.168-1.944-.504a3.629 3.629 0 0 1-1.296-1.332v5.49h-2.412V14.568h2.106v1.62a3.772 3.772 0 0 1 1.35-1.296c.564-.324 1.2-.486 1.908-.486.852 0 1.608.222 2.268.666a4.561 4.561 0 0 1 1.566 1.764c.384.732.576 1.542.576 2.43 0 .924-.18 1.758-.54 2.502a4.48 4.48 0 0 1-1.458 1.764c-.612.432-1.32.648-2.124.648Zm-.81-2.052c.492 0 .918-.132 1.278-.396.372-.276.66-.63.864-1.062a3.17 3.17 0 0 0 .324-1.404c0-.528-.114-1.002-.342-1.422a2.533 2.533 0 0 0-.936-1.008 2.372 2.372 0 0 0-1.332-.378c-.456 0-.912.15-1.368.45-.456.3-.762.678-.918 1.134v2.214c.216.528.546.972.99 1.332.444.36.924.54 1.44.54Z" />
    <path fill="#A3E635" d="M142.503 24v-2.592h1.98V24h-1.98Z" />
</svg>
