<svg xmlns="http://www.w3.org/2000/svg" fill="none" viewBox="0 0 907 347">
    <path fill="#ECFCCB"
        d="M7.956 346.23a1 1 0 0 0 1.4-.198l5.412-7.191a1 1 0 1 0-1.598-1.202l-4.81 6.392-6.393-4.811a1 1 0 0 0-1.202 1.598l7.19 5.412ZM901.64 104.84a.999.999 0 0 0 1.325-.493l3.746-8.183a1 1 0 1 0-1.819-.832l-3.329 7.274-7.274-3.33a1 1 0 0 0-.833 1.819l8.184 3.745ZM9.074 341.502a1 1 0 1 0-1.987.231l1.987-.231Zm-2.809-7.625a1 1 0 1 0 1.991-.188l-1.99.188Zm1.315-8.098a1 1 0 1 0-1.994.153l1.994-.153Zm-2.54-7.726a1 1 0 1 0 1.996-.123l-1.996.123Zm1.571-7.938a1.001 1.001 0 0 0-1.997.094l1.997-.094Zm-2.31-7.74a.999.999 0 1 0 1.998-.066l-1.998.066Zm1.796-7.922a1 1 0 0 0-2 .038l2-.038Zm-2.092-7.908a1 1 0 0 0 2-.008l-2 .008Zm2.022-7.87a1 1 0 1 0-2-.02l2 .02Zm-1.865-7.882a1 1 0 1 0 2 .049l-2-.049Zm2.253-7.861a1 1 0 1 0-1.998-.079l1.998.079Zm-1.627-7.938a1 1 0 1 0 1.997.11l-1.997-.11Zm2.49-7.74a1 1 0 0 0-1.995-.142l1.995.142Zm-1.37-8.042a1 1 0 1 0 1.992.174l-1.992-.174Zm2.74-7.624a1 1 0 0 0-1.99-.208l1.99.208Zm-1.095-8.091a1 1 0 1 0 1.985.243l-1.985-.243Zm3.008-7.523a1 1 0 0 0-1.98-.279l1.98.279Zm-.798-8.107a1 1 0 1 0 1.975.318l-1.975-.318Zm3.3-7.42a1 1 0 0 0-1.968-.358l1.968.358Zm-.472-8.122a1 1 0 0 0 1.96.4l-1.96-.4Zm3.614-7.282a1 1 0 1 0-1.95-.443l1.95.443Zm-.11-8.13a1 1 0 0 0 1.939.489l-1.94-.489Zm3.952-7.106a1 1 0 0 0-1.927-.537l1.927.537Zm.292-8.124a1 1 0 1 0 1.912.586l-1.912-.586Zm4.318-6.889a1 1 0 0 0-1.895-.639l1.895.639Zm.742-8.097a1 1 0 0 0 1.876.695l-1.876-.695Zm4.712-6.619a1 1 0 0 0-1.853-.753l1.853.753Zm1.243-8.039a1 1 0 1 0 1.828.813l-1.828-.813Zm5.136-6.295a1 1 0 1 0-1.798-.875l1.798.875Zm1.798-7.931a1 1 0 0 0 1.765.941l-1.765-.941Zm5.585-5.901a1 1 0 0 0-1.726-1.009l1.726 1.009Zm2.408-7.765a1 1 0 1 0 1.684 1.079l-1.684-1.079Zm6.05-5.424a1 1 0 1 0-1.635-1.15l1.636 1.15Zm3.07-7.527a1 1 0 0 0 1.58 1.224l-1.58-1.224Zm6.514-4.85a1 1 0 0 0-1.522-1.298l1.522 1.297Zm3.77-7.206a1 1 0 0 0 1.456 1.371l-1.456-1.37Zm6.956-4.18a1 1 0 1 0-1.385-1.444l1.385 1.443Zm4.491-6.792a1 1 0 0 0 1.307 1.514l-1.307-1.514Zm7.344-3.422a1 1 0 1 0-1.224-1.581l1.224 1.581Zm5.206-6.284a1 1 0 0 0 1.136 1.646l-1.136-1.646Zm7.652-2.597a1 1 0 0 0-1.046-1.705l1.046 1.705Zm5.864-5.689a1 1 0 1 0 .951 1.76l-.951-1.76Zm7.878-1.751a1 1 0 0 0-.857-1.807l.857 1.807Zm6.451-5.038a1 1 0 0 0 .761 1.85l-.761-1.85Zm8-.914a1 1 0 1 0-.666-1.886l.666 1.886Zm6.964-4.368a1 1 0 0 0 .571 1.917l-.571-1.917Zm8.015-.114a1 1 0 0 0-.481-1.941l.481 1.94Zm7.332-3.691a1 1 0 0 0 .393 1.96l-.393-1.96Zm8.016.603a1 1 0 1 0-.309-1.976l.309 1.976Zm7.571-3.044a1 1 0 0 0 .229 1.987l-.229-1.987Zm8.351 1.208a1 1 0 0 0-.159-1.994l.159 1.994Zm7.886-2.509a1 1 0 0 0 .096 1.998l-.096-1.998Zm7.934 1.756a1 1 0 1 0-.027-2l.027 2Zm8.101-1.95a1 1 0 0 0-.053 2l.053-2Zm7.769 2.375a1 1 0 0 0 .14-1.995l-.14 1.995Zm8.22-1.229a1 1 0 1 0-.239 1.986l.239-1.986Zm7.559 3.141a1 1 0 1 0 .349-1.969l-.349 1.97Zm8.21-.33a1 1 0 1 0-.469 1.945l.469-1.944Zm7.191 4.072a1 1 0 1 0 .602-1.907l-.602 1.907Zm8.122.771a1 1 0 0 0-.742 1.858l.742-1.858Zm6.504 5.088a1 1 0 0 0 .888-1.793l-.888 1.793Zm7.968 2.086a1 1 0 0 0-1.033 1.712l1.033-1.712Zm5.532 6.058a1 1 0 1 0 1.172-1.62l-1.172 1.62Zm7.494 3.368a1 1 0 1 0-1.302 1.518l1.302-1.518Zm4.5 6.903a1 1 0 1 0 1.415-1.413l-1.415 1.413Zm6.89 4.486a1 1 0 1 0-1.512 1.309l1.512-1.309Zm3.475 7.461a1 1 0 1 0 1.591-1.21l-1.591 1.21Zm6.285 5.328a1 1 0 0 0-1.655 1.123l1.655-1.123Zm2.644 7.786a1 1 0 1 0 1.703-1.047l-1.703 1.047Zm5.772 5.863a1 1 0 0 0-1.741.984l1.741-.984Zm2.077 7.976a1 1 0 1 0 1.768-.934l-1.768.934Zm5.435 6.191a1 1 0 0 0-1.788.898l1.788-.898Zm1.735 8.04a1 1 0 1 0 1.799-.873l-1.799.873Zm5.264 6.334a1.001 1.001 0 0 0-1.805.862l1.805-.862Zm1.634 8.082a1 1 0 0 0 1.806-.861l-1.806.861Zm5.255 6.329a1 1 0 0 0-1.8.871l1.8-.871Zm1.723 8.052a.999.999 0 1 0 1.79-.892l-1.79.892Zm5.407 6.215a1 1 0 1 0-1.773.924l1.773-.924Zm2.006 7.986a.999.999 0 1 0 1.751-.965l-1.751.965Zm5.687 5.948a1 1 0 1 0-1.723 1.015l1.723-1.015Zm2.467 7.858a1 1 0 0 0 1.687-1.074l-1.687 1.074Zm6.088 5.545a1.001 1.001 0 0 0-1.643 1.141l1.643-1.141Zm3.078 7.627a1 1 0 1 0 1.589-1.214l-1.589 1.214Zm6.558 4.975a1 1 0 0 0-1.527 1.291l1.527-1.291Zm3.828 7.299a1 1 0 0 0 1.457-1.37l-1.457 1.37Zm7.032 4.231a1 1 0 0 0-1.377 1.451l1.377-1.451Zm4.622 6.822a1 1 0 0 0 1.29-1.529l-1.29 1.529Zm7.501 3.403a1 1 0 1 0-1.197 1.602l1.197-1.602Zm5.358 6.199a1 1 0 1 0 1.099-1.67l-1.099 1.67Zm7.897 2.522a1 1 0 0 0-1 1.732l1-1.732Zm6.013 5.52a1 1 0 1 0 .901-1.786l-.901 1.786Zm8.095 1.603a1 1 0 0 0-.804 1.831l.804-1.831Zm6.62 4.863a1 1 0 0 0 .709-1.87l-.709 1.87Zm8.184.762a1 1 0 0 0-.62 1.902l.62-1.902Zm7.077 4.219a1 1 0 1 0 .535-1.927l-.535 1.927Zm8.215.032a1 1 0 1 0-.455 1.947l.455-1.947Zm7.381 3.619a1 1 0 0 0 .381-1.964l-.381 1.964Zm8.248-.585a1 1 0 0 0-.311 1.976l.311-1.976Zm7.547 3.082a.999.999 0 1 0 .247-1.984l-.247 1.984Zm8.336-1.103a1.001 1.001 0 0 0-.187 1.992l.187-1.992Zm7.6 2.616a1 1 0 1 0 .134-1.996l-.134 1.996Zm8.16-1.565a1 1 0 0 0-.082 1.999l.082-1.999Zm8.275 2.238a1 1 0 0 0 .033-2l-.033 2Zm8.064-1.967a1 1 0 0 0 .018 2l-.018-2Zm7.671 1.827a1 1 0 1 0-.074-1.999l.074 1.999Zm8.131-2.442a1 1 0 1 0 .144 1.995l-.144-1.995Zm7.89 1.288a1 1 0 1 0-.221-1.988l.221 1.988Zm7.778-3.071a1 1 0 0 0 .318 1.974l-.318-1.974Zm7.965.527a1 1 0 1 0-.429-1.953l.429 1.953Zm7.38-3.957a.999.999 0 1 0 .57 1.917l-.57-1.917Zm8.074-.66a1 1 0 1 0-.734-1.86l.734 1.86Zm6.348-5.094a1 1 0 1 0 .931 1.769l-.931-1.769Zm7.868-2.486a1 1 0 1 0-1.162-1.628l1.162 1.628Zm4.786-6.612a.999.999 0 1 0 1.404 1.424l-1.404-1.424Zm6.647-4.717a1 1 0 0 0-1.629-1.162l1.629 1.162Zm2.305-7.831a1 1 0 0 0 1.803.867l-1.803-.867Zm4.722-6.674a1.001 1.001 0 0 0-1.914-.581l1.914.581Zm-.141-8.204a1 1 0 0 0 1.972.333l-1.972-.333Zm2.897-7.675a1 1 0 1 0-1.995-.134l1.995.134Zm-1.784-7.975a1 1 0 1 0 2-.019l-2 .019Zm1.68-8.006a.999.999 0 1 0-1.995.135l1.995-.135Zm-2.71-7.746a1 1 0 0 0 1.988-.222l-1.988.222Zm.97-8.162a1 1 0 1 0-1.98.283l1.98-.283Zm-3.191-7.552a1 1 0 1 0 1.973-.325l-1.973.325Zm.625-8.166a1 1 0 1 0-1.969.35l1.969-.35Zm-3.384-7.479a1 1 0 1 0 1.967-.36l-1.967.36Zm.543-8.184a1 1 0 1 0-1.969.355l1.969-.355Zm-3.348-7.488a1 1 0 0 0 1.972-.336l-1.972.336Zm.701-8.178a1 1 0 0 0-1.977.302l1.977-.302Zm-3.085-7.594a1 1 0 0 0 1.984-.252l-1.984.252Zm1.121-8.107a1 1 0 0 0-1.992.183l1.992-.183Zm-2.549-7.817a1 1 0 1 0 1.998-.091l-1.998.09Zm1.858-7.99a1 1 0 1 0-2-.025l2 .026Zm-1.617-8.026a1 1 0 1 0 1.992.171l-1.992-.171Zm3.004-7.6a1 1 0 1 0-1.969-.351l1.969.35Zm-.136-8.202a1 1 0 1 0 1.919.563l-1.919-.563Zm4.581-6.785a1 1 0 1 0-1.832-.801l1.832.801Zm1.897-7.945a1 1 0 0 0 1.704 1.047l-1.704-1.047Zm6.237-5.269a.999.999 0 1 0-1.537-1.278l1.537 1.278Zm4.058-7.131a1 1 0 0 0 1.349 1.476l-1.349-1.476Zm7.454-3.433a1 1 0 1 0-1.157-1.631l1.157 1.63Zm5.559-5.872a1.001 1.001 0 0 0 .98 1.743l-.98-1.743Zm8.035-1.8a1 1 0 0 0-.818-1.825l.818 1.824Zm6.617-4.82a1 1 0 1 0 .679 1.881l-.679-1.88Zm8.106-.531a1 1 0 1 0-.56-1.92l.56 1.92Zm7.273-3.97a1 1 0 1 0 .455 1.947l-.455-1.947Zm8.074.349a1 1 0 1 0-.368-1.966l.368 1.966Zm7.558-3.287a1 1 0 0 0 .291 1.979l-.291-1.979Zm8.397.918a1 1 0 0 0-.238-1.986l.238 1.986Zm7.632-2.857a1 1 0 0 0 .202 1.99l-.202-1.99Zm7.947 1.275a1 1 0 1 0-.165-1.993l.165 1.993Zm7.784-2.576a1 1 0 0 0 .127 1.996l-.127-1.996Zm7.86 1.581A1 1 0 0 0 692.3.355l.087 1.998Zm7.904-2.262a1 1 0 1 0 .045 2l-.045-2Zm7.81 1.91a1 1 0 0 0-.002-2l.002 2Zm7.971-1.915a1 1 0 0 0-.044 2l.044-2Zm7.719 2.263a1.001 1.001 0 0 0 .092-1.997l-.092 1.997Zm8.051-1.532a1 1 0 1 0-.142 1.995l.142-1.995Zm7.588 2.643a1 1 0 1 0 .192-1.99l-.192 1.99Zm8.126-1.113a1 1 0 0 0-.247 1.985l.247-1.985Zm7.476 3.056a1 1 0 1 0 .302-1.977l-.302 1.977Zm8.122-.662a1 1 0 0 0-.361 1.967l.361-1.967Zm7.331 3.5a1 1 0 1 0 .421-1.956l-.421 1.956Zm8.073-.182a1 1 0 1 0-.482 1.94l.482-1.94Zm7.143 3.97a1 1 0 1 0 .547-1.924l-.547 1.924Zm8.094.36a1 1 0 0 0-.612 1.904l.612-1.904Zm6.78 4.425a1 1 0 0 0 .679-1.882l-.679 1.882Zm8.104.953a1 1 0 0 0-.748 1.855l.748-1.855Zm6.456 4.919a1 1 0 0 0 .818-1.826l-.818 1.826Zm7.942 1.532a1 1 0 1 0-.888 1.792l.888-1.792Zm6.067 5.411a1 1 0 0 0 .959-1.755l-.959 1.755Zm7.843 2.191a1 1 0 1 0-1.03 1.714l1.03-1.714Zm5.599 5.89a1 1 0 0 0 1.102-1.67l-1.102 1.67Zm7.61 2.826a1 1 0 0 0-1.172 1.621l1.172-1.62Zm5.065 6.34a1 1 0 0 0 1.242-1.568l-1.242 1.569Zm7.334 3.479a1 1 0 0 0-1.31 1.511l1.31-1.511Zm4.488 6.769a1 1 0 1 0 1.376-1.45l-1.376 1.45Zm6.997 4.135a1 1 0 0 0-1.442 1.385l1.442-1.385Zm3.853 7.16a1 1 0 0 0 1.506-1.316l-1.506 1.316Zm6.576 4.77a1 1 0 1 0-1.567 1.243l1.567-1.243Zm3.117 7.46a1 1 0 1 0 1.627-1.164l-1.627 1.163Zm6.093 5.44a1 1 0 0 0-1.687 1.076l1.687-1.076Zm2.32 7.769a1 1 0 0 0 1.746-.976l-1.746.976Zm5.385 6.093a1 1 0 0 0-1.812.846l1.812-.846ZM8.557 345.43l.99-.14a.03.03 0 0 0 0-.003l-.002-.011-.006-.045a88.883 88.883 0 0 1-.12-.904 227.8 227.8 0 0 1-.345-2.826l-1.987.231a228.601 228.601 0 0 0 .47 3.773l.008.048.001.012v.005l.991-.14Zm-.3-11.742c-.22-2.328-.451-4.975-.677-7.91l-1.994.153c.227 2.947.458 5.606.68 7.945l1.99-.188ZM7.035 317.93a537.815 537.815 0 0 1-.425-7.815l-1.997.094c.129 2.747.273 5.366.426 7.844l1.996-.123Zm-.737-15.621a555.468 555.468 0 0 1-.202-7.856l-2 .038c.051 2.709.12 5.34.204 7.884l1.998-.066Zm-.294-15.772c-.011-2.564-.005-5.187.022-7.862l-2-.02a549.468 549.468 0 0 0-.022 7.89l2-.008Zm.157-15.695c.063-2.596.147-5.235.253-7.91l-1.998-.079a527.88 527.88 0 0 0-.255 7.94l2 .049Zm.623-15.738c.142-2.588.306-5.206.493-7.85l-1.995-.142a498.97 498.97 0 0 0-.495 7.882l1.997.11ZM7.9 239.386c.225-2.58.474-5.18.748-7.798l-1.99-.208c-.274 2.63-.524 5.241-.75 7.832l1.992.174Zm1.638-15.646c.316-2.577.656-5.166 1.023-7.766l-1.98-.279a426.768 426.768 0 0 0-1.028 7.802l1.985.243Zm2.2-15.555a388.77 388.77 0 0 1 1.325-7.738l-1.968-.358a391.345 391.345 0 0 0-1.332 7.778l1.975.318Zm2.813-15.46a351.417 351.417 0 0 1 1.654-7.682l-1.95-.443a355.55 355.55 0 0 0-1.664 7.725l1.96.4Zm3.483-15.323c.64-2.537 1.31-5.07 2.013-7.595l-1.927-.537a319.642 319.642 0 0 0-2.025 7.643l1.939.489Zm4.217-15.133a285.04 285.04 0 0 1 2.406-7.475l-1.895-.639a284.504 284.504 0 0 0-2.423 7.528l1.912.586Zm5.024-14.877a252.626 252.626 0 0 1 2.836-7.314l-1.853-.753c-.99 2.442-1.943 4.9-2.859 7.372l1.876.695Zm5.907-14.54a225.987 225.987 0 0 1 3.308-7.108l-1.798-.875a227.228 227.228 0 0 0-3.338 7.17l1.828.813Zm6.871-14.098a201.065 201.065 0 0 1 3.82-6.842l-1.726-1.009a203.437 203.437 0 0 0-3.859 6.91l1.765.941Zm7.912-13.528c1.41-2.2 2.865-4.369 4.367-6.503l-1.636-1.15a182.857 182.857 0 0 0-4.415 6.574l1.684 1.079Zm9.017-12.806a165.004 165.004 0 0 1 4.933-6.075l-1.522-1.297a167.205 167.205 0 0 0-4.993 6.148l1.582 1.224ZM67.14 80.511a153.277 153.277 0 0 1 5.5-5.552l-1.385-1.443a155.312 155.312 0 0 0-5.571 5.624l1.456 1.371Zm11.298-10.829a146.259 146.259 0 0 1 6.037-4.936l-1.224-1.581a148.172 148.172 0 0 0-6.12 5.003l1.307 1.514Zm12.38-9.574a143.896 143.896 0 0 1 6.515-4.243l-1.046-1.705a145.9 145.9 0 0 0-6.606 4.302l1.136 1.646Zm13.33-8.172a146.181 146.181 0 0 1 6.927-3.511l-.857-1.807a148.541 148.541 0 0 0-7.021 3.558l.951 1.76Zm14.139-6.7a153.479 153.479 0 0 1 7.239-2.763l-.666-1.886a155.636 155.636 0 0 0-7.334 2.8l.761 1.85Zm14.774-5.214a166.549 166.549 0 0 1 7.444-2.031l-.481-1.941c-2.558.634-5.069 1.32-7.534 2.055l.571 1.917Zm15.169-3.761c2.498-.5 5.039-.954 7.623-1.358l-.309-1.976a184.91 184.91 0 0 0-7.707 1.373l.393 1.96Zm15.423-2.415a200.45 200.45 0 0 1 3.997-.42l-.188-1.99c-1.357.128-2.703.27-4.038.423l.229 1.987Zm3.997-.42c1.39-.131 2.765-.25 4.125-.36l-.159-1.993c-1.37.11-2.755.23-4.154.363l.188 1.99Zm12.107-.87c2.673-.128 5.285-.209 7.838-.242l-.027-2c-2.577.034-5.212.115-7.907.244l.096 1.998Zm15.886-.192c2.676.07 5.282.197 7.822.375l.14-1.995c-2.57-.18-5.205-.308-7.909-.38l-.053 2Zm15.803 1.132c2.678.323 5.276.709 7.798 1.155l.349-1.969c-2.56-.453-5.194-.845-7.908-1.172l-.239 1.986Zm15.539 2.77c2.642.638 5.194 1.348 7.66 2.127l.602-1.907a117.516 117.516 0 0 0-7.793-2.164l-.469 1.944Zm15.04 4.756c2.508 1 4.922 2.079 7.246 3.23l.888-1.793a101.138 101.138 0 0 0-7.392-3.295l-.742 1.858Zm14.181 7.028a93.849 93.849 0 0 1 6.565 4.346l1.172-1.62a95.623 95.623 0 0 0-6.704-4.438l-1.033 1.712Zm12.757 9.232a102.059 102.059 0 0 1 5.802 5.385l1.415-1.413a103.605 103.605 0 0 0-5.915-5.49l-1.302 1.518Zm11.18 11.18a126.402 126.402 0 0 1 4.987 6.152l1.591-1.21a128.054 128.054 0 0 0-5.066-6.25l-1.512 1.308Zm9.617 12.603a175.622 175.622 0 0 1 4.299 6.663l1.703-1.047a177.766 177.766 0 0 0-4.347-6.739l-1.655 1.123Zm8.33 13.51c1.3 2.298 2.569 4.63 3.818 6.992l1.768-.934a283.082 283.082 0 0 0-3.845-7.042l-1.741.984Zm7.465 14.081a585.818 585.818 0 0 1 3.523 7.142l1.799-.873a597.015 597.015 0 0 0-3.534-7.167l-1.788.898Zm6.982 14.338c1.144 2.398 2.287 4.803 3.439 7.22l1.806-.861c-1.15-2.411-2.297-4.824-3.44-7.221l-1.805.862Zm6.894 14.42a660.192 660.192 0 0 0 3.523 7.181l1.79-.892a695.382 695.382 0 0 1-3.513-7.16l-1.8.871Zm7.157 14.32a338.263 338.263 0 0 0 3.779 7.062l1.751-.965a345.896 345.896 0 0 1-3.757-7.021l-1.773.924Zm7.743 14.025c1.355 2.3 2.75 4.582 4.19 6.843l1.687-1.074a230.939 230.939 0 0 1-4.154-6.784l-1.723 1.015Zm8.635 13.529a178.056 178.056 0 0 0 4.721 6.486l1.589-1.214a176.194 176.194 0 0 1-4.667-6.413l-1.643 1.141Zm9.752 12.752a150.525 150.525 0 0 0 5.355 6.008l1.457-1.37a148.929 148.929 0 0 1-5.285-5.929l-1.527 1.291Zm11.01 11.69a137.486 137.486 0 0 0 5.999 5.371l1.29-1.529a135.247 135.247 0 0 1-5.912-5.293l-1.377 1.451Zm12.303 10.376a134.691 134.691 0 0 0 6.555 4.597l1.099-1.67a133.741 133.741 0 0 1-6.457-4.529l-1.197 1.602Zm13.452 8.851a142.555 142.555 0 0 0 7.013 3.788l.901-1.786a140.67 140.67 0 0 1-6.914-3.734l-1 1.732Zm14.304 7.222a157.976 157.976 0 0 0 7.424 3.032l.709-1.87a156.087 156.087 0 0 1-7.329-2.993l-.804 1.831Zm14.988 5.696c2.5.814 5.065 1.587 7.697 2.317l.535-1.927a178.795 178.795 0 0 1-7.612-2.292l-.62 1.902Zm15.457 4.296c2.552.596 5.164 1.154 7.836 1.672l.381-1.964a208.4 208.4 0 0 1-7.762-1.655l-.455 1.947Zm15.773 3.063c2.566.404 5.184.773 7.858 1.106l.247-1.984c-2.652-.331-5.25-.697-7.794-1.098l-.311 1.976Zm16.007 1.995c2.548.239 5.144.447 7.787.624l.134-1.996a284.42 284.42 0 0 1-7.734-.62l-.187 1.992Zm15.865 1.058c1.371.056 2.755.104 4.151.144l.057-1.999c-1.388-.04-2.763-.088-4.126-.144l-.082 1.999Zm4.151.144c1.42.04 2.822.072 4.206.095l.033-2a361.325 361.325 0 0 1-4.182-.094l-.057 1.999Zm12.288.128c2.622-.024 5.172-.082 7.653-.173l-.074-1.999c-2.461.091-4.992.149-7.597.172l.018 2Zm15.928-.62a200.16 200.16 0 0 0 7.746-.707l-.221-1.988c-2.467.275-5.023.509-7.669.7l.144 1.995Zm15.842-1.804c2.66-.428 5.207-.911 7.647-1.447l-.429-1.953a136.477 136.477 0 0 1-7.536 1.426l.318 1.974Zm15.597-3.487a91.211 91.211 0 0 0 7.504-2.577l-.734-1.86a88.946 88.946 0 0 1-7.34 2.52l.57 1.917Zm14.783-5.902a59.939 59.939 0 0 0 6.937-4.255l-1.162-1.628a58.164 58.164 0 0 1-6.706 4.114l.931 1.769Zm13.127-9.443a46.712 46.712 0 0 0 5.243-6.141L577.208 218a44.703 44.703 0 0 1-5.018 5.879l1.404 1.424Zm9.351-13.105a52.655 52.655 0 0 0 2.919-7.541l-1.914-.581a50.499 50.499 0 0 1-2.808 7.255l1.803.867Zm4.75-15.412c.441-2.607.743-5.28.925-8.008l-1.995-.134a78.407 78.407 0 0 1-.902 7.809l1.972.333Zm1.141-16.002a137.65 137.65 0 0 0-.32-7.987l-1.995.135c.18 2.667.29 5.292.315 7.871l2-.019Zm-1.042-15.955a256.454 256.454 0 0 0-1.018-7.94l-1.98.283c.38 2.653.721 5.281 1.01 7.879l1.988-.222Zm-2.236-15.817c-.428-2.6-.881-5.216-1.348-7.841l-1.969.35c.465 2.619.917 5.226 1.344 7.816l1.973-.325Zm-2.765-15.68c-.476-2.605-.954-5.214-1.424-7.824l-1.969.355c.471 2.613.95 5.225 1.426 7.829l1.967-.36Zm-2.8-15.648c-.446-2.62-.873-5.236-1.271-7.842l-1.977.302c.4 2.619.829 5.247 1.276 7.876l1.972-.336Zm-2.372-15.688a230.081 230.081 0 0 1-.863-7.855l-1.992.183c.241 2.625.535 5.268.871 7.924l1.984-.252Zm-1.414-15.763a135.22 135.22 0 0 1-.14-7.898l-2-.025c-.033 2.642.018 5.316.142 8.014l1.998-.091Zm.235-15.754c.227-2.638.56-5.23 1.012-7.772l-1.969-.35a88.484 88.484 0 0 0-1.035 7.95l1.992.172Zm2.795-15.41a61.661 61.661 0 0 1 2.662-7.348l-1.832-.801a63.568 63.568 0 0 0-2.749 7.586l1.919.563Zm6.263-14.246a54.66 54.66 0 0 1 4.533-6.316l-1.537-1.278a56.463 56.463 0 0 0-4.7 6.547l1.704 1.047Zm9.94-11.97a63.621 63.621 0 0 1 6.105-4.91l-1.157-1.631a65.668 65.668 0 0 0-6.297 5.064l1.349 1.476Zm12.644-9.039a87.497 87.497 0 0 1 7.055-3.544l-.818-1.824a89.348 89.348 0 0 0-7.217 3.625l.98 1.743Zm14.351-6.482a124.582 124.582 0 0 1 7.427-2.412l-.56-1.92a126.51 126.51 0 0 0-7.546 2.451l.679 1.881Zm15.155-4.435a174.698 174.698 0 0 1 7.619-1.598l-.368-1.966a176.558 176.558 0 0 0-7.706 1.617l.455 1.947Zm15.468-2.906c1.353-.199 2.728-.388 4.126-.568l-.254-1.984c-1.41.181-2.797.372-4.163.573l.291 1.979Zm4.126-.568c1.334-.171 2.66-.336 3.98-.493l-.238-1.986c-1.325.158-2.657.323-3.996.495l.254 1.984Zm11.814-1.36c2.61-.265 5.191-.503 7.745-.715l-.165-1.993c-2.566.213-5.16.452-7.782.718l.202 1.99Zm15.656-1.295a390.79 390.79 0 0 1 7.733-.415L692.3.355c-2.562.112-5.152.25-7.773.417l.127 1.996Zm15.682-.678c2.62-.058 5.208-.088 7.765-.09l-.002-2c-2.57.002-5.173.032-7.808.09l.045 2Zm15.692-.005c2.622.059 5.21.147 7.763.264l.092-1.997a331.673 331.673 0 0 0-7.811-.266l-.044 2Zm15.672.727c2.614.185 5.191.402 7.73.648l.192-1.99a304.596 304.596 0 0 0-7.78-.653l-.142 1.995Zm15.609 1.52c2.616.326 5.19.683 7.723 1.071l.302-1.977c-2.551-.39-5.144-.75-7.778-1.079l-.247 1.985Zm15.484 2.376c2.61.48 5.174.99 7.692 1.533l.421-1.956a257.878 257.878 0 0 0-7.752-1.544l-.361 1.967ZM778.076 10c2.592.644 5.134 1.321 7.625 2.03l.547-1.925a239.166 239.166 0 0 0-7.69-2.046l-.482 1.94Zm15.107 4.293c2.518.81 4.982 1.65 7.392 2.52l.679-1.88a222.678 222.678 0 0 0-7.459-2.544l-.612 1.904Zm14.748 5.33c2.461.991 4.862 2.014 7.204 3.063l.818-1.826a209.594 209.594 0 0 0-7.274-3.093l-.748 1.855Zm14.258 6.387a195.84 195.84 0 0 1 6.955 3.62l.959-1.756a198.512 198.512 0 0 0-7.026-3.656l-.888 1.792Zm13.768 7.524a185.999 185.999 0 0 1 6.629 4.176l1.102-1.67a188.75 188.75 0 0 0-6.701-4.22l-1.03 1.714Zm13.067 8.623a179.05 179.05 0 0 1 6.237 4.72l1.242-1.569a181.492 181.492 0 0 0-6.307-4.772l-1.172 1.621Zm12.261 9.71a173.223 173.223 0 0 1 5.798 5.257l1.376-1.45a174.984 174.984 0 0 0-5.864-5.32l-1.31 1.512Zm11.353 10.777a165.963 165.963 0 0 1 5.295 5.775l1.506-1.316a169.076 169.076 0 0 0-5.359-5.844l-1.442 1.385Zm10.304 11.788a156.618 156.618 0 0 1 4.684 6.216l1.627-1.163a159.128 159.128 0 0 0-4.744-6.296l-1.567 1.243Zm9.09 12.733a134.356 134.356 0 0 1 4.007 6.693l1.746-.976a136.891 136.891 0 0 0-4.066-6.793l-1.687 1.076Zm7.58 13.632a68.275 68.275 0 0 1 1.151 2.594 31.53 31.53 0 0 1 .338.838l.015.04.003.009.001.002.937-.349.937-.349v-.002l-.002-.003-.005-.014-.019-.049-.072-.185a32.278 32.278 0 0 0-.287-.707 69.893 69.893 0 0 0-1.185-2.671l-1.812.846Z" />
</svg>
