<svg xmlns="http://www.w3.org/2000/svg" fill="none" viewBox="0 0 256 256">
    <g fill="#D2D6DB" clip-path="url(#a)">
        <circle cx="2" cy="2" r="2" />
        <circle cx="20" cy="2" r="2" />
        <circle cx="38" cy="2" r="2" />
        <circle cx="56" cy="2" r="2" />
        <circle cx="74" cy="2" r="2" />
        <circle cx="92" cy="2" r="2" />
        <circle cx="110" cy="2" r="2" />
        <circle cx="128" cy="2" r="2" />
        <circle cx="146" cy="2" r="2" />
        <circle cx="164" cy="2" r="2" />
        <circle cx="182" cy="2" r="2" />
        <circle cx="200" cy="2" r="2" />
        <circle cx="218" cy="2" r="2" />
        <circle cx="236" cy="2" r="2" />
        <circle cx="254" cy="2" r="2" />
        <circle cx="2" cy="20" r="2" />
        <circle cx="20" cy="20" r="2" />
        <circle cx="38" cy="20" r="2" />
        <circle cx="56" cy="20" r="2" />
        <circle cx="74" cy="20" r="2" />
        <circle cx="92" cy="20" r="2" />
        <circle cx="110" cy="20" r="2" />
        <circle cx="128" cy="20" r="2" />
        <circle cx="146" cy="20" r="2" />
        <circle cx="164" cy="20" r="2" />
        <circle cx="182" cy="20" r="2" />
        <circle cx="200" cy="20" r="2" />
        <circle cx="218" cy="20" r="2" />
        <circle cx="236" cy="20" r="2" />
        <circle cx="254" cy="20" r="2" />
        <circle cx="2" cy="38" r="2" />
        <circle cx="20" cy="38" r="2" />
        <circle cx="38" cy="38" r="2" />
        <circle cx="56" cy="38" r="2" />
        <circle cx="74" cy="38" r="2" />
        <circle cx="92" cy="38" r="2" />
        <circle cx="110" cy="38" r="2" />
        <circle cx="128" cy="38" r="2" />
        <circle cx="146" cy="38" r="2" />
        <circle cx="164" cy="38" r="2" />
        <circle cx="182" cy="38" r="2" />
        <circle cx="200" cy="38" r="2" />
        <circle cx="218" cy="38" r="2" />
        <circle cx="236" cy="38" r="2" />
        <circle cx="254" cy="38" r="2" />
        <circle cx="2" cy="56" r="2" />
        <circle cx="20" cy="56" r="2" />
        <circle cx="38" cy="56" r="2" />
        <circle cx="56" cy="56" r="2" />
        <circle cx="74" cy="56" r="2" />
        <circle cx="92" cy="56" r="2" />
        <circle cx="110" cy="56" r="2" />
        <circle cx="128" cy="56" r="2" />
        <circle cx="146" cy="56" r="2" />
        <circle cx="164" cy="56" r="2" />
        <circle cx="182" cy="56" r="2" />
        <circle cx="200" cy="56" r="2" />
        <circle cx="218" cy="56" r="2" />
        <circle cx="236" cy="56" r="2" />
        <circle cx="254" cy="56" r="2" />
        <circle cx="2" cy="74" r="2" />
        <circle cx="20" cy="74" r="2" />
        <circle cx="38" cy="74" r="2" />
        <circle cx="56" cy="74" r="2" />
        <circle cx="74" cy="74" r="2" />
        <circle cx="92" cy="74" r="2" />
        <circle cx="110" cy="74" r="2" />
        <circle cx="128" cy="74" r="2" />
        <circle cx="146" cy="74" r="2" />
        <circle cx="164" cy="74" r="2" />
        <circle cx="182" cy="74" r="2" />
        <circle cx="200" cy="74" r="2" />
        <circle cx="218" cy="74" r="2" />
        <circle cx="236" cy="74" r="2" />
        <circle cx="254" cy="74" r="2" />
        <circle cx="2" cy="92" r="2" />
        <circle cx="20" cy="92" r="2" />
        <circle cx="38" cy="92" r="2" />
        <circle cx="56" cy="92" r="2" />
        <circle cx="74" cy="92" r="2" />
        <circle cx="92" cy="92" r="2" />
        <circle cx="110" cy="92" r="2" />
        <circle cx="128" cy="92" r="2" />
        <circle cx="146" cy="92" r="2" />
        <circle cx="164" cy="92" r="2" />
        <circle cx="182" cy="92" r="2" />
        <circle cx="200" cy="92" r="2" />
        <circle cx="218" cy="92" r="2" />
        <circle cx="236" cy="92" r="2" />
        <circle cx="254" cy="92" r="2" />
        <circle cx="2" cy="110" r="2" />
        <circle cx="20" cy="110" r="2" />
        <circle cx="38" cy="110" r="2" />
        <circle cx="56" cy="110" r="2" />
        <circle cx="74" cy="110" r="2" />
        <circle cx="92" cy="110" r="2" />
        <circle cx="110" cy="110" r="2" />
        <circle cx="128" cy="110" r="2" />
        <circle cx="146" cy="110" r="2" />
        <circle cx="164" cy="110" r="2" />
        <circle cx="182" cy="110" r="2" />
        <circle cx="200" cy="110" r="2" />
        <circle cx="218" cy="110" r="2" />
        <circle cx="236" cy="110" r="2" />
        <circle cx="254" cy="110" r="2" />
        <circle cx="2" cy="128" r="2" />
        <circle cx="20" cy="128" r="2" />
        <circle cx="38" cy="128" r="2" />
        <circle cx="56" cy="128" r="2" />
        <circle cx="74" cy="128" r="2" />
        <circle cx="92" cy="128" r="2" />
        <circle cx="110" cy="128" r="2" />
        <circle cx="128" cy="128" r="2" />
        <circle cx="146" cy="128" r="2" />
        <circle cx="164" cy="128" r="2" />
        <circle cx="182" cy="128" r="2" />
        <circle cx="200" cy="128" r="2" />
        <circle cx="218" cy="128" r="2" />
        <circle cx="236" cy="128" r="2" />
        <circle cx="254" cy="128" r="2" />
        <circle cx="2" cy="146" r="2" />
        <circle cx="20" cy="146" r="2" />
        <circle cx="38" cy="146" r="2" />
        <circle cx="56" cy="146" r="2" />
        <circle cx="74" cy="146" r="2" />
        <circle cx="92" cy="146" r="2" />
        <circle cx="110" cy="146" r="2" />
        <circle cx="128" cy="146" r="2" />
        <circle cx="146" cy="146" r="2" />
        <circle cx="164" cy="146" r="2" />
        <circle cx="182" cy="146" r="2" />
        <circle cx="200" cy="146" r="2" />
        <circle cx="218" cy="146" r="2" />
        <circle cx="236" cy="146" r="2" />
        <circle cx="254" cy="146" r="2" />
        <circle cx="2" cy="164" r="2" />
        <circle cx="20" cy="164" r="2" />
        <circle cx="38" cy="164" r="2" />
        <circle cx="56" cy="164" r="2" />
        <circle cx="74" cy="164" r="2" />
        <circle cx="92" cy="164" r="2" />
        <circle cx="110" cy="164" r="2" />
        <circle cx="128" cy="164" r="2" />
        <circle cx="146" cy="164" r="2" />
        <circle cx="164" cy="164" r="2" />
        <circle cx="182" cy="164" r="2" />
        <circle cx="200" cy="164" r="2" />
        <circle cx="218" cy="164" r="2" />
        <circle cx="236" cy="164" r="2" />
        <circle cx="254" cy="164" r="2" />
        <circle cx="2" cy="182" r="2" />
        <circle cx="20" cy="182" r="2" />
        <circle cx="38" cy="182" r="2" />
        <circle cx="56" cy="182" r="2" />
        <circle cx="74" cy="182" r="2" />
        <circle cx="92" cy="182" r="2" />
        <circle cx="110" cy="182" r="2" />
        <circle cx="128" cy="182" r="2" />
        <circle cx="146" cy="182" r="2" />
        <circle cx="164" cy="182" r="2" />
        <circle cx="182" cy="182" r="2" />
        <circle cx="200" cy="182" r="2" />
        <circle cx="218" cy="182" r="2" />
        <circle cx="236" cy="182" r="2" />
        <circle cx="254" cy="182" r="2" />
        <circle cx="2" cy="200" r="2" />
        <circle cx="20" cy="200" r="2" />
        <circle cx="38" cy="200" r="2" />
        <circle cx="56" cy="200" r="2" />
        <circle cx="74" cy="200" r="2" />
        <circle cx="92" cy="200" r="2" />
        <circle cx="110" cy="200" r="2" />
        <circle cx="128" cy="200" r="2" />
        <circle cx="146" cy="200" r="2" />
        <circle cx="164" cy="200" r="2" />
        <circle cx="182" cy="200" r="2" />
        <circle cx="200" cy="200" r="2" />
        <circle cx="218" cy="200" r="2" />
        <circle cx="236" cy="200" r="2" />
        <circle cx="254" cy="200" r="2" />
        <circle cx="2" cy="218" r="2" />
        <circle cx="20" cy="218" r="2" />
        <circle cx="38" cy="218" r="2" />
        <circle cx="56" cy="218" r="2" />
        <circle cx="74" cy="218" r="2" />
        <circle cx="92" cy="218" r="2" />
        <circle cx="110" cy="218" r="2" />
        <circle cx="128" cy="218" r="2" />
        <circle cx="146" cy="218" r="2" />
        <circle cx="164" cy="218" r="2" />
        <circle cx="182" cy="218" r="2" />
        <circle cx="200" cy="218" r="2" />
        <circle cx="218" cy="218" r="2" />
        <circle cx="236" cy="218" r="2" />
        <circle cx="254" cy="218" r="2" />
        <circle cx="2" cy="236" r="2" />
        <circle cx="20" cy="236" r="2" />
        <circle cx="38" cy="236" r="2" />
        <circle cx="56" cy="236" r="2" />
        <circle cx="74" cy="236" r="2" />
        <circle cx="92" cy="236" r="2" />
        <circle cx="110" cy="236" r="2" />
        <circle cx="128" cy="236" r="2" />
        <circle cx="146" cy="236" r="2" />
        <circle cx="164" cy="236" r="2" />
        <circle cx="182" cy="236" r="2" />
        <circle cx="200" cy="236" r="2" />
        <circle cx="218" cy="236" r="2" />
        <circle cx="236" cy="236" r="2" />
        <circle cx="254" cy="236" r="2" />
        <circle cx="2" cy="254" r="2" />
        <circle cx="20" cy="254" r="2" />
        <circle cx="38" cy="254" r="2" />
        <circle cx="56" cy="254" r="2" />
        <circle cx="74" cy="254" r="2" />
        <circle cx="92" cy="254" r="2" />
        <circle cx="110" cy="254" r="2" />
        <circle cx="128" cy="254" r="2" />
        <circle cx="146" cy="254" r="2" />
        <circle cx="164" cy="254" r="2" />
        <circle cx="182" cy="254" r="2" />
        <circle cx="200" cy="254" r="2" />
        <circle cx="218" cy="254" r="2" />
        <circle cx="236" cy="254" r="2" />
        <circle cx="254" cy="254" r="2" />
    </g>
    <defs>
        <clipPath id="a">
            <path fill="#fff" d="M0 0h256v256H0z" />
        </clipPath>
    </defs>
</svg>
