<svg xmlns="http://www.w3.org/2000/svg" fill="none" viewBox="0 0 242 200">
    <path fill="#E6E7E8" d="m31.136 83.879 85.035-53.67 85.036 53.67v78.304H31.136V83.879Z" />
    <path fill="#231F20" fill-rule="evenodd"
        d="M30.742 162.183c0 .218.176.394.394.394h170.071a.395.395 0 0 0 .425-.354V83.918a.387.387 0 0 0-.189-.33L116.376 29.91a.401.401 0 0 0-.417 0L30.923 83.549a.378.378 0 0 0-.18.33v78.304Zm170.11-.393H31.506V84.1l84.665-53.402 84.681 53.401v77.691Z"
        clip-rule="evenodd" />
    <path fill="#fff"
        d="M136.887 62.8c2.827-4.666 3.544-10.339 3.284-15.784a38.423 38.423 0 0 0-4.592-17.034 15.388 15.388 0 0 0-4.915-5.634c-2.552-1.574-4.292-.511-6.789-.936-2.111-.362-4.317-1.865-6.656-2.25a21.632 21.632 0 0 0-15.517 3.241C93.7 29.81 90.005 40.14 81.735 45.16c-8.105 4.895-18.478 3.423-27.568 6.13a30.729 30.729 0 0 0-10.523 5.555 18.344 18.344 0 0 0-5.151 6.145c-2.135 4.453-1.576 9.756 0 14.454 1.575 4.83 4.237 9.442 8.365 12.44 3.458 2.494 7.703 3.642 11.901 4.398 5.71 1.03 11.626 1.416 17.329.18a25.263 25.263 0 0 0 11.397-5.538c1.402-1.252 2.174-2.959 3.481-4.202 1.804-1.708 4.616-2.754 6.727-4.06 3.3-2.054 6.608-4.241 10.373-5.217 9.563-2.486 23.055-3.163 28.821-12.644Z" />
    <path fill="#231F20" fill-rule="evenodd"
        d="M58.672 94.666c3.232.611 6.51.932 9.799.96 2.582.03 5.16-.22 7.688-.747a25.476 25.476 0 0 0 11.61-5.681 13.172 13.172 0 0 0 1.906-2.266 13.44 13.44 0 0 1 1.575-1.944 18.65 18.65 0 0 1 4.261-2.698 46.917 46.917 0 0 0 2.403-1.322l.787-.512.065-.04c2.965-1.844 6.017-3.743 9.387-4.61 1.807-.472 3.735-.865 5.778-1.282l.311-.063c8.554-1.747 18.226-3.722 22.952-11.448 2.552-4.178 3.647-9.529 3.34-15.98a38.525 38.525 0 0 0-4.64-17.2 15.497 15.497 0 0 0-5.041-5.752 6.748 6.748 0 0 0-4.505-.937c-.803.075-1.612.057-2.41-.055a15.033 15.033 0 0 1-3.064-1.046 15.687 15.687 0 0 0-3.624-1.244 21.987 21.987 0 0 0-15.753 3.329c-3.906 2.66-6.837 6.507-9.664 10.228l-.028.037c-2.977 3.915-6.05 7.958-10.259 10.499-4.836 2.92-10.39 3.533-16.265 4.178-3.786.309-7.536.95-11.208 1.92a31.037 31.037 0 0 0-10.642 5.618 18.409 18.409 0 0 0-5.245 6.294c-2.419 4.989-1.347 10.788-.056 14.722 1.812 5.508 4.734 9.89 8.491 12.589 3.758 2.699 8.412 3.8 12.051 4.453Zm43.235-69.9a20.958 20.958 0 0 1 11.72-3.51c1.202.01 2.401.12 3.584.33a15.21 15.21 0 0 1 3.434 1.157 15.09 15.09 0 0 0 3.214 1.094c.853.12 1.717.143 2.576.07a5.98 5.98 0 0 1 4.087.787 14.887 14.887 0 0 1 4.789 5.508 37.737 37.737 0 0 1 4.545 16.877c.299 6.31-.787 11.55-3.229 15.58-4.537 7.459-14.068 9.402-22.488 11.11-2.182.44-4.198.857-6.12 1.353-3.486.884-6.591 2.82-9.593 4.69l-.048.03-.835.52c-.732.448-1.52.858-2.363 1.29a19.206 19.206 0 0 0-4.426 2.817 13.804 13.804 0 0 0-1.678 2.046c-.52.78-1.124 1.501-1.804 2.148a24.742 24.742 0 0 1-11.279 5.508c-4.923 1.07-10.53 1.007-17.163-.181-3.56-.645-8.144-1.74-11.76-4.344-3.615-2.604-6.458-6.837-8.223-12.258-1.268-3.816-2.284-9.395 0-14.163a17.802 17.802 0 0 1 5.057-6.02 30.382 30.382 0 0 1 10.397-5.507 63.147 63.147 0 0 1 11.075-1.888l.053-.006c5.663-.628 11.533-1.279 16.487-4.275 4.33-2.606 7.453-6.717 10.472-10.69l.02-.026.04-.054c2.784-3.658 5.657-7.433 9.459-9.994Z"
        clip-rule="evenodd" />
    <path fill="#fff"
        d="m169.023 55.09-4.143 15.578 9.979 1.778 5.687-20.811s-8.869-6.782-10.239-6.83c-1.371-.047-1.284 10.284-1.284 10.284Z" />
    <path fill="#231F20" fill-rule="evenodd"
        d="M174.789 72.84h.07a.387.387 0 0 0 .363-.268l5.695-20.811a.402.402 0 0 0-.142-.417c-1.505-1.141-9.05-6.861-10.46-6.908a.677.677 0 0 0-.52.212c-1.166 1.125-1.166 8.773-1.166 10.441l-4.111 15.508a.387.387 0 0 0 .307.488l9.964 1.755Zm-.197-.842-9.184-1.62 4.032-15.163a.35.35 0 0 0 0-.102c-.031-4.407.315-9.497.875-9.914.756.023 5.529 3.344 9.79 6.586l-5.513 20.213Z"
        clip-rule="evenodd" />
    <path fill="#fff"
        d="M158.24 44.9s1.41 3.147 3.442 3.659c2.032.511 6.451-1.668 6.963-1.385.512.283 12.169 9.001 13.303 9.26 1.135.26 3.222-2.486 4.112-5.751 0 0-11.342-7.727-12.083-8.545-.74-.818-1.622-5.712-2.725-7.506L158.24 44.9Z" />
    <path fill="#231F20" fill-rule="evenodd"
        d="M181.822 56.852c.082.007.163.007.245 0 1.535 0 3.544-3.132 4.355-5.996a.377.377 0 0 0-.157-.425c-4.545-3.1-11.492-7.915-12.012-8.49-.485-.972-.85-2-1.087-3.06a21.391 21.391 0 0 0-1.575-4.383.425.425 0 0 0-.268-.181.411.411 0 0 0-.315.079l-12.989 10.228a.378.378 0 0 0-.11.465l.004.009c.107.227 1.544 3.305 3.698 3.877 1.363.36 3.598-.377 5.242-.919l.028-.009c.187-.065.389-.145.584-.222.462-.181.886-.348.991-.282.149.095 1.362.968 2.757 1.991 6.183 4.509 9.9 7.145 10.609 7.318Zm-12.988-10.024a.656.656 0 0 0-.323-.071c-.657.078-1.3.242-1.914.488l-.017.005c-1.458.48-3.658 1.205-4.803.907-1.473-.37-2.663-2.407-3.049-3.147l12.374-9.78c.52 1.234.949 2.504 1.284 3.8.528 1.794.867 2.927 1.268 3.368.709.794 10.004 7.152 11.918 8.45-.953 3.234-2.828 5.406-3.568 5.209-.635-.169-5.446-3.656-8.794-6.082l-1.533-1.11-.603-.438c-1.431-1.04-2.094-1.523-2.24-1.6Z"
        clip-rule="evenodd" />
    <path fill="#231F20"
        d="M170.638 37.567a4.222 4.222 0 0 0 .449 2.415c.638 1.141 3.465 2.66 3.465 2.66l1.97-3.934-3.86-2.786-2.024 1.645Z" />
    <path fill="#231F20" fill-rule="evenodd"
        d="M174.371 42.988a.363.363 0 0 0 .181.047.303.303 0 0 0 .118-.031.393.393 0 0 0 .237-.197l1.969-3.934a.394.394 0 0 0-.126-.488l-3.852-2.785a.394.394 0 0 0-.488 0l-2.024 1.668a.374.374 0 0 0-.134.244 4.61 4.61 0 0 0 .496 2.66c.669 1.203 3.316 2.659 3.623 2.816Zm-2.938-3.195a3.804 3.804 0 0 1-.417-2.014l1.662-1.377 3.339 2.416-1.63 3.289c-.914-.527-2.544-1.527-2.954-2.314Z"
        clip-rule="evenodd" />
    <path fill="#fff"
        d="M182.988 48.598s1.032-3.25-.788-3.478a1.672 1.672 0 0 0-2.52-1.338s-.583-2.415-2.489-1.927-3.418 5.043-3.151 6.192c.268 1.149 1.749.449 2.497-.63 0 0-.969 1.795-.323 2.267.945.692 1.938-.535 2.741-1.432 0 0-1.189 2.1.56 2.29 1.346.149 2.599-2.566 2.599-2.566l.874.622Z" />
    <path fill="#231F20" fill-rule="evenodd"
        d="M179.436 50.943h.149c1.206 0 2.214-1.59 2.592-2.392l.535.37c.105.07.236.087.355.047a.371.371 0 0 0 .244-.252c.095-.228.701-2.219 0-3.313a1.455 1.455 0 0 0-.827-.621 2.36 2.36 0 0 0-1.008-1.424 1.988 1.988 0 0 0-1.576-.095 3.222 3.222 0 0 0-1.213-1.573 2.025 2.025 0 0 0-1.622-.205c-2.174.559-3.741 5.327-3.45 6.657.062.437.394.787.827.873a1.71 1.71 0 0 0 1.142-.244c-.128.446.01.925.355 1.235.779.575 1.535.213 2.189-.362a1.308 1.308 0 0 0 1.308 1.299Zm-.284-3.006a.37.37 0 0 0-.236-.079.404.404 0 0 0-.292.126l-.165.189c-.851.944-1.504 1.59-2.056 1.188-.181-.134.04-.983.441-1.77a.4.4 0 0 0-.141-.52.394.394 0 0 0-.528.11 2.168 2.168 0 0 1-1.575 1.047c-.056-.008-.158-.031-.213-.275-.213-1 1.197-5.296 2.875-5.72a1.277 1.277 0 0 1 1.016.11c.493.382.843.92.992 1.526a.41.41 0 0 0 .213.26.402.402 0 0 0 .331 0c.396-.23.875-.264 1.299-.095.366.271.61.676.678 1.126a.401.401 0 0 0 .339.338c.22.016.42.132.543.315.258.683.283 1.433.071 2.132l-.441-.307a.38.38 0 0 0-.331-.055.401.401 0 0 0-.252.212c-.37.787-1.41 2.447-2.198 2.36-.433-.046-.543-.22-.543-.275-.189-.37.11-1.125.283-1.432a.401.401 0 0 0-.11-.511Z"
        clip-rule="evenodd" />
    <path fill="#fff"
        d="M174.568 38.85s-1.079-1.873-2.213-.229c-1.134 1.645-2.497 4.72-.607 5.051 1.891.33 3.308-3.194 2.82-4.823Z" />
    <path fill="#231F20" fill-rule="evenodd"
        d="M171.685 44.074c.103.007.205.007.308 0a2.362 2.362 0 0 0 1.732-.882 5.501 5.501 0 0 0 1.221-4.445l-.039-.087-.004-.005c-.078-.129-.648-1.058-1.501-1.096a1.631 1.631 0 0 0-1.37.85c-.811 1.164-2.032 3.5-1.481 4.815.199.465.632.79 1.134.85Zm.993-5.248c.157-.229.409-.504.669-.504h.016c.355.016.709.464.835.669a4.764 4.764 0 0 1-1.063 3.659c-.306.419-.805.653-1.324.621a.637.637 0 0 1-.535-.378c-.331-.794.449-2.69 1.402-4.068Z"
        clip-rule="evenodd" />
    <path fill="#fff"
        d="M169.015 56.143s-1.244-5.94-1.363-7.002c-.196-1.802.229-4.619 1.812-5.06 1.583-.44 5.206-.857 4.608.732-.544 1.448-3.718 1.723-3.718 1.723s2.19 2.203 1.859 4.399" />
    <path fill="#231F20"
        d="M169.015 56.537a.394.394 0 0 1-.386-.307c-.047-.244-1.244-5.98-1.363-7.081-.204-1.842.189-4.95 2.096-5.508.992-.276 4.025-.842 4.915.126.274.305.339.745.165 1.117-.449 1.212-2.261 1.692-3.308 1.88.661.835 1.725 2.48 1.465 4.163a.398.398 0 0 1-.788-.118c.3-1.975-1.725-4.044-1.74-4.06a.409.409 0 0 1-.095-.417.394.394 0 0 1 .339-.252c.787-.07 3.009-.472 3.379-1.471.086-.213 0-.276 0-.307-.418-.464-2.6-.323-4.128.094-1.283.354-1.709 2.92-1.52 4.635.118 1.03 1.347 6.916 1.355 6.97a.387.387 0 0 1-.307.464l-.079.072Z" />
    <path fill="#fff"
        d="M192.275 33.617s-13.123-1.298-18.479 1.802a34.412 34.412 0 0 0-3.859 2.675c-2.907 2.274-5.64 4.855-7.767 6.294-4.221 2.833-8.301 3.407-11.082-1.101-2.363-3.848-.984-5.673 2.213-9.096 1.576-1.692 4.915-4.485 7.79-7.577a24.324 24.324 0 0 0 4.254-5.822c2.426-5.099 1.74-12.912 1.74-12.912l25.19 25.737Z" />
    <path fill="#231F20" fill-rule="evenodd"
        d="M155.011 46.843c.413.093.836.138 1.26.134 1.804 0 3.852-.755 6.136-2.266a53.254 53.254 0 0 0 4.332-3.446 110.761 110.761 0 0 1 3.458-2.849 33.706 33.706 0 0 1 3.812-2.643c4.906-2.853 16.749-1.884 18.114-1.773l.128.01a.402.402 0 0 0 .394-.228.393.393 0 0 0-.071-.44L167.369 7.58a.386.386 0 0 0-.449-.087.401.401 0 0 0-.228.394c.007.078.661 7.79-1.702 12.746a23.686 23.686 0 0 1-4.182 5.72c-1.662 1.747-3.434 3.431-5.01 4.895-1.134 1.046-2.111 1.959-2.788 2.683-3.229 3.462-4.797 5.452-2.253 9.575a6.725 6.725 0 0 0 4.254 3.336Zm10.696-25.87c1.922-4.084 1.93-9.733 1.835-12.094l23.74 24.29c-3.261-.245-13.091-.701-17.651 1.95a34.812 34.812 0 0 0-3.938 2.715 110.773 110.773 0 0 0-3.013 2.47l-.469.394a50.725 50.725 0 0 1-4.261 3.383c-2.623 1.755-4.899 2.44-6.774 2.03a6.015 6.015 0 0 1-3.749-2.99c-2.253-3.674-.993-5.31 2.158-8.654.64-.685 1.588-1.566 2.676-2.577l.073-.067.029-.027c1.576-1.465 3.352-3.116 5.02-4.906a24.738 24.738 0 0 0 4.324-5.917Z"
        clip-rule="evenodd" />
    <path fill="#231F20"
        d="M170.638 37.567c-2.907 2.274-6.42 5.287-8.468 6.813-4.678 3.494-7.64 3.864-10.696-.456-3.151-4.438-1.37-6.294 1.827-9.725 1.576-1.692 4.915-4.485 7.79-7.577 0 0 .182 3.218 3.387 7.144a11.171 11.171 0 0 0 6.16 3.8Z" />
    <path fill="#231F20" fill-rule="evenodd"
        d="M155.515 47.418c.239.038.482.057.724.055 1.686 0 3.655-.881 6.168-2.778 1.034-.77 2.43-1.914 3.928-3.142l.333-.272.509-.416c1.255-1.025 2.526-2.062 3.705-2.984a.426.426 0 0 0 .142-.409.41.41 0 0 0-.315-.29 10.872 10.872 0 0 1-5.924-3.667c-3.071-3.77-3.3-6.917-3.3-6.917a.394.394 0 0 0-.26-.346.377.377 0 0 0-.417.103c-1.662 1.746-3.434 3.43-5.01 4.893l-.273.253c-1.018.938-1.896 1.747-2.554 2.47l-.011.012c-3.192 3.423-5.121 5.493-1.809 10.17 1.402 1.982 2.788 3.02 4.364 3.265Zm.819-15.595c1.41-1.306 2.985-2.77 4.489-4.343a15.746 15.746 0 0 0 3.348 6.53 11.706 11.706 0 0 0 5.592 3.745 317.35 317.35 0 0 0-3.591 2.92l-.891.73c-1.278 1.052-2.456 2.02-3.347 2.66-2.733 2.039-4.671 2.826-6.301 2.574-1.347-.213-2.568-1.149-3.836-2.943-2.93-4.151-1.371-5.83 1.763-9.202l.025-.027c.639-.685 1.588-1.566 2.676-2.577l.073-.067Z"
        clip-rule="evenodd" />
    <path fill="#7C5DFA"
        d="M195.913 32.507c-2.937 2.636-9.451.44-15.792-4.917a45.403 45.403 0 0 1-4.568-4.438 45.61 45.61 0 0 1-3.844-4.933c-4.726-6.94-6.199-13.66-3.237-16.311 3.654-3.281 12.775.905 20.36 9.355 7.586 8.45 10.752 17.955 7.081 21.244Z" />
    <path fill="#231F20" fill-rule="evenodd"
        d="M167.92 1.333a5.58 5.58 0 0 1 3.852-1.321c4.852 0 11.752 4.21 17.628 10.693a38.538 38.538 0 0 1 7.931 12.833c1.473 4.327 1.135 7.71-.89 9.52a5.579 5.579 0 0 1-3.883 1.353c-3.521 0-8.247-2.281-12.973-6.216a47.818 47.818 0 0 1-8.553-9.552c-5.065-7.474-6.317-14.438-3.112-17.31Zm20.889 9.938C182.98 4.78 176.238.798 171.772.798a4.838 4.838 0 0 0-3.3 1.11c-2.962 2.651-1.489 9.37 3.237 16.31a45.51 45.51 0 0 0 3.828 4.942 45.403 45.403 0 0 0 4.568 4.438c4.545 3.824 9.137 6.035 12.469 6.035a4.833 4.833 0 0 0 3.324-1.118c3.686-3.289.504-12.794-7.089-21.244Z"
        clip-rule="evenodd" />
    <path fill="#fff"
        d="m185.359 21.043-5.238 6.547a45.403 45.403 0 0 1-4.568-4.438 45.62 45.62 0 0 1-3.844-4.933l7.577-4.65 6.073 7.474Z" />
    <ellipse cx="182.308" cy="17.334" fill="#231F20" rx="2.244" ry="4.817" transform="rotate(-39.4 182.308 17.334)" />
    <path fill="#231F20" fill-rule="evenodd"
        d="M180.255 18.99c1.394 1.7 3.064 2.699 4.301 2.699a1.66 1.66 0 0 0 1.031-.339c1.142-.944.583-3.446-1.276-5.704a8.659 8.659 0 0 0-2.78-2.353c-1.056-.472-1.953-.48-2.544 0s-.756 1.37-.465 2.502a8.794 8.794 0 0 0 1.733 3.195Zm-.772-5.091a.884.884 0 0 1 .575-.173c.385.024.761.129 1.103.307a8.006 8.006 0 0 1 2.56 2.109c1.654 2.014 2.055 4.036 1.378 4.595-.677.558-2.584-.229-4.238-2.243a7.883 7.883 0 0 1-1.575-2.895c-.205-.803-.134-1.425.197-1.7Z"
        clip-rule="evenodd" />
    <path fill="#231F20"
        d="M178.916 48.645a.37.37 0 0 1-.197-.055.387.387 0 0 1-.142-.535 9.544 9.544 0 0 1 1.796-2.148.394.394 0 1 1 .504.598 9.17 9.17 0 0 0-1.575 1.951.402.402 0 0 1-.386.19ZM176.498 47.811h-.063a.394.394 0 0 1-.307-.464 5.007 5.007 0 0 1 1.882-2.801.394.394 0 0 1 .473.63 4.273 4.273 0 0 0-1.576 2.32.401.401 0 0 1-.409.315ZM182.074 48.37a.39.39 0 0 1-.382-.326.392.392 0 0 1 .067-.296l.536-.787a.41.41 0 0 1 .551-.094.401.401 0 0 1 .095.55l-.544.787a.377.377 0 0 1-.323.166Z" />
    <path fill="#fff"
        d="M157.216 46.678a.386.386 0 0 1-.236-.079c-3.482-2.643-5.64-5.854-6.065-9.032v-.087a.393.393 0 0 1 .173-.448.387.387 0 0 1 .544.125c.046.096.073.2.078.307.402 2.974 2.442 5.996 5.766 8.506a.393.393 0 0 1-.244.708h-.016ZM155.27 34.12a.378.378 0 0 1-.283-.133.386.386 0 0 1 0-.551l4.238-3.934a.377.377 0 0 1 .551 0 .386.386 0 0 1 0 .55l-4.238 3.934a.379.379 0 0 1-.268.134ZM155.853 35.065a.425.425 0 0 1-.291-.126.401.401 0 0 1 0-.56l4.238-3.933a.391.391 0 1 1 .551.559l-4.23 3.934a.418.418 0 0 1-.268.126ZM156.523 36.15a.363.363 0 0 1-.284-.125.385.385 0 0 1 0-.551l4.238-3.934a.378.378 0 0 1 .551 0 .386.386 0 0 1 0 .55l-4.237 3.934a.37.37 0 0 1-.268.126Z" />
    <path fill="#7C5DFA"
        d="m86.422 96.838-1.977 43.606s26.977.322 42.494-6.153a101.665 101.665 0 0 1 4.6-12.188c2.276-4.595 12.051-11.37 8.979-28.963 0 0 23.031 14.556 29.521 7.868 6.49-6.688 9.736-37.925 9.736-37.925l-13.485-4.327-6.128 19.261s-38.863-18.781-47.921-21.157c-3.363-.882-13.816 4.673-25.796 12.36" />
    <path fill="#231F20"
        d="M111.406 69.936s6.246 19.388 7.317 27.594c1.072 8.207 1.229 21.772 1.229 21.772s9.885-30.246 8.664-48.925l-17.21-.44Z" />
    <path fill="#231F20" fill-rule="evenodd"
        d="M119.905 119.656h.047a.347.347 0 0 0 .339-.244c.094-.276 9.885-30.529 8.664-49.059a.339.339 0 0 0-.339-.322l-17.202-.44a.353.353 0 0 0-.339.456l.002.005c.138.43 6.251 19.495 7.3 27.533 1.055 8.089 1.228 21.599 1.228 21.732.003.172.13.315.3.339Zm-.835-22.173c-.969-7.435-6.23-24.179-7.184-27.184l16.399.432c.914 15.603-5.875 39.341-8.026 46.423-.094-4.163-.401-13.486-1.189-19.67Z"
        clip-rule="evenodd" />
    <path fill="#231F20"
        d="M79.94 163.592h74.44l-27.418-29.301-42.494 6.153s-5.088 11.503-4.608 19.576c.032.952.055 2.171.08 3.572Z" />
    <path fill="#231F20" fill-rule="evenodd"
        d="M79.94 163.985H154.387a.395.395 0 0 0 .292-.661l-27.418-29.301a.413.413 0 0 0-.347-.126l-42.533 6.153a.41.41 0 0 0-.3.228c-.212.48-5.12 11.685-4.639 19.765.055.968.102 2.235.102 3.557a.385.385 0 0 0 .394.385Zm73.527-.787H80.341c0-1.09-.046-2.128-.085-2.978l-.01-.224c-.44-7.31 3.82-17.625 4.49-19.198l42.077-6.09 26.654 28.49Z"
        clip-rule="evenodd" />
    <path fill="#fff"
        d="m126.474 59.511 2.134 10.866s.056 6.295-6.923 5.689a13.92 13.92 0 0 1-10.279-6.13l-2.828-18.978a34.275 34.275 0 0 0-.835-10.3c8.027-1.66 13.209-8.922 13.209-8.922s3.553 3.62 5.002 4.721a16.547 16.547 0 0 1 3.151 2.81c1.52 1.88 1.969 4.508 2.363 6.829.495 2.755.74 5.549.732 8.348-.126 5.311-5.726 5.067-5.726 5.067Z" />
    <path fill="#231F20" fill-rule="evenodd"
        d="M121.653 76.467h.938a6.305 6.305 0 0 0 4.387-1.48 6.622 6.622 0 0 0 1.922-4.626l-2.056-10.44a6.62 6.62 0 0 0 4.072-1.574 5.183 5.183 0 0 0 1.576-3.872c.008-2.82-.24-5.635-.741-8.41-.378-2.275-.858-5.013-2.434-6.995a16.935 16.935 0 0 0-3.15-2.865c-1.062-.795-3.298-3.02-4.372-4.087a16.284 16.284 0 0 0-.598-.586.34.34 0 0 0-.284-.11.371.371 0 0 0-.268.15c-.047.07-5.19 7.206-12.98 8.78a.366.366 0 0 0-.229.157.325.325 0 0 0-.047.268 31.919 31.919 0 0 1 .835 9.332 4.732 4.732 0 0 0 0 .952c.008.094 2.828 18.978 2.828 18.978a.426.426 0 0 0 .047.133 14.179 14.179 0 0 0 10.554 6.295Zm.063-.755a13.691 13.691 0 0 1-9.963-5.901c-2.797-18.719-2.765-18.916-2.765-18.916a4.921 4.921 0 0 1 0-.786 31.896 31.896 0 0 0-.788-9.167c6.971-1.574 11.689-7.2 12.815-8.655.859.897 3.498 3.525 4.726 4.446a16.46 16.46 0 0 1 3.049 2.746c1.451 1.77 1.873 4.244 2.249 6.452l.035.204c.494 2.734.74 5.507.732 8.285a4.536 4.536 0 0 1-1.315 3.352 6.157 6.157 0 0 1-4.001 1.377.34.34 0 0 0-.292.126.397.397 0 0 0-.079.307l2.127 10.795a5.992 5.992 0 0 1-1.701 4.037c-1.127 1.038-2.749 1.47-4.829 1.298Z"
        clip-rule="evenodd" />
    <path fill="#231F20"
        d="M127.427 64.862s-4.38 1.03-7.782-1.37c-3.403-2.4-3.545-5.444-3.545-5.444s5.388 2.29 10.374 1.463l.953 5.35Z" />
    <path fill="#231F20" fill-rule="evenodd"
        d="M119.448 63.776a9.847 9.847 0 0 0 5.687 1.66c.807.011 1.613-.068 2.402-.236a.346.346 0 0 0 .268-.401l-.961-5.35a.346.346 0 0 0-.394-.284c-4.426.737-9.263-1.093-10.068-1.398-.072-.027-.112-.042-.116-.042a.332.332 0 0 0-.331.04.324.324 0 0 0-.15.298c0 .173.158 3.242 3.663 5.713Zm.425-.567a7.919 7.919 0 0 1-3.3-4.619c1.465.551 5.592 1.873 9.649 1.314l.835 4.682c-1.048.197-4.466.543-7.184-1.377Z"
        clip-rule="evenodd" />
    <path fill="#fff" d="M120.661 40.981s4.497 4.564 3.836 5.626c-.662 1.062-3.104.913-3.104.913" />
    <path fill="#231F20"
        d="M121.772 47.874h-.402a.344.344 0 0 1-.323-.37.354.354 0 0 1 .37-.33c.622 0 2.363 0 2.789-.74.267-.44-1.497-2.872-3.789-5.2a.347.347 0 1 1 .496-.489c1.41 1.432 4.608 4.887 3.883 6.059-.598.952-2.245 1.07-3.024 1.07Z" />
    <ellipse cx="126.624" cy="42.344" fill="#231F20" rx=".614" ry="1.149" transform="rotate(-13.01 126.624 42.344)" />
    <ellipse cx="116.589" cy="43.362" fill="#231F20" rx=".614" ry="1.149" transform="rotate(-13.01 116.589 43.362)" />
    <path fill="#fff"
        d="M111.154 44.695c-1.095-1.77-3.655-2.014-5.443-1.298a3.148 3.148 0 0 0-2.087 2.848c-.014.773.125 1.54.41 2.259a11.855 11.855 0 0 0 2.11 3.69 4.25 4.25 0 0 0 1.647 1.322 2.183 2.183 0 0 0 2.363-.614" />
    <path fill="#231F20"
        d="M108.531 54.02c-.296-.001-.59-.057-.866-.166a4.718 4.718 0 0 1-1.796-1.424 12.348 12.348 0 0 1-2.174-3.8 6.274 6.274 0 0 1-.433-2.408 3.509 3.509 0 0 1 2.315-3.148c1.97-.786 4.726-.472 5.884 1.44a.362.362 0 0 1-.614.378c-.985-1.574-3.308-1.833-5.002-1.157a2.815 2.815 0 0 0-1.874 2.526c-.011.726.12 1.448.386 2.124a11.567 11.567 0 0 0 2.047 3.58c.393.523.91.94 1.505 1.212.712.25 1.505.041 2.001-.527a.361.361 0 0 1 .642.137.365.365 0 0 1-.13.367c-.49.528-1.17.84-1.891.865Z" />
    <path fill="#fff" d="m125.072 48.936-5.27.512s1.095 8.135 3.466 7.915c2.371-.22 2.379-6.098 1.804-8.427Z" />
    <path fill="#231F20" fill-rule="evenodd"
        d="M119.456 49.495c.181 1.393 1.229 8.222 3.71 8.222l.134-.008a1.924 1.924 0 0 0 1.402-.881c1.307-1.833 1.157-6.169.709-7.978a.348.348 0 0 0-.371-.26l-5.277.511a.313.313 0 0 0-.236.134.304.304 0 0 0-.071.26Zm3.71 7.522c-1.394 0-2.529-4.28-2.97-7.255l4.608-.417c.41 1.983.362 5.626-.669 7.082-.197.32-.526.537-.898.59h-.071Z"
        clip-rule="evenodd" />
    <path fill="#231F20"
        d="M138.257 112.024a.353.353 0 0 1-.299-.543c.055-.103 5.844-9.828.307-30.08a.37.37 0 0 1 .252-.441.355.355 0 0 1 .441.252c5.632 20.583-.142 30.245-.394 30.686a.35.35 0 0 1-.307.126Z" />
    <path fill="#fff" d="m31.136 83.879 85.035 61.285 85.036-61.285v100.54H31.136V83.879Z" />
    <path fill="#231F20" fill-rule="evenodd"
        d="M30.742 184.419c0 .217.177.393.394.393h170.071a.402.402 0 0 0 .394-.393V83.879a.386.386 0 0 0-.221-.346.387.387 0 0 0-.41 0l-84.799 61.112-84.806-61.112a.386.386 0 0 0-.41 0 .377.377 0 0 0-.213.346v100.54Zm170.11-.393H31.506V84.65l84.429 60.829a.395.395 0 0 0 .465 0l84.452-60.829v99.376Z"
        clip-rule="evenodd" />
    <path fill="#231F20"
        d="M31.136 184.812a.393.393 0 0 1-.347-.204.4.4 0 0 1 .15-.535l77.805-44.464a.393.393 0 0 1 .535.15.387.387 0 0 1-.141.535l-77.813 44.463a.394.394 0 0 1-.189.055ZM201.207 184.812a.422.422 0 0 1-.197-.055l-77.805-44.463a.394.394 0 0 1-.15-.535.402.402 0 0 1 .536-.149l77.805 44.463a.393.393 0 0 1 .149.535.383.383 0 0 1-.338.204Z" />
    <path fill="#fff"
        d="M71.677 138.303s3.442 8.954 4.253 9.442c.811.488 10.397 4.407 9.712 6.24-.686 1.833-5.002-.401-5.002-.401s6.215 7.183 4.576 8.45c-1.638 1.267-7.152 3.84-9.365 2.793-2.213-1.046-13.248-14.705-15.588-20.638" />
    <path fill="#231F20"
        d="M77.19 165.488a3.527 3.527 0 0 1-1.496-.283c-2.363-1.125-13.47-14.95-15.793-20.851a.396.396 0 1 1 .74-.283c2.364 6.051 13.47 19.513 15.384 20.457 1.913.944 7.293-1.448 8.963-2.746a.37.37 0 0 0 .118-.259c.15-1.574-3.387-6.035-4.726-7.625a.392.392 0 0 1-.01-.501.395.395 0 0 1 .49-.105c.788.41 3.041 1.385 4.05 1a.646.646 0 0 0 .401-.394c.189-.511-1.056-1.794-8.074-5.043-.85-.394-1.3-.606-1.48-.724-.85-.543-3.592-7.53-4.411-9.654a.394.394 0 0 1 .228-.512.394.394 0 0 1 .504.228c1.639 4.257 3.624 8.891 4.112 9.285.134.086.709.354 1.378.661 5.656 2.612 9.043 4.54 8.483 6.035-.146.397-.46.711-.858.857a5.105 5.105 0 0 1-3.15-.362c1.52 1.897 4.032 5.304 3.874 6.924a1.13 1.13 0 0 1-.417.787c-1.3.984-5.49 3.108-8.31 3.108Z" />
    <path fill="#7C5DFA"
        d="M86.445 69.252C66.187 82.25 41.55 101.378 39.47 105.847c-3.324 7.081 21.534 42.693 21.534 42.693l13.461-8.529-12.303-26.697 24.26-16.484" />
    <path fill="#231F20"
        d="M70.889 107.806a.354.354 0 0 1-.3-.149.37.37 0 0 1 .087-.504l27.237-19.049a.355.355 0 0 1 .505.087.362.362 0 0 1-.095.503l-27.23 19.049a.327.327 0 0 1-.204.063ZM189.234 161.79l33.011-20.182-27.97 11.637-5.041 8.545Z" />
    <path fill="#231F20" fill-rule="evenodd"
        d="M188.959 162.065a.381.381 0 0 0 .275.118.45.45 0 0 0 .205-.086l33.034-20.151a.392.392 0 0 0-.354-.7l-28.001 11.637a.364.364 0 0 0-.181.165l-5.041 8.537a.392.392 0 0 0 .063.48Zm1.417-1.455 4.167-7.082 23.157-9.622-27.324 16.704Z"
        clip-rule="evenodd" />
    <path fill="#fff" d="m194.275 153.245 10.791 5.516 17.179-17.153-27.97 11.637Z" />
    <path fill="#231F20" fill-rule="evenodd"
        d="M204.901 159.075c.05.028.107.042.165.04a.332.332 0 0 0 .26-.102l17.179-17.153a.347.347 0 0 0 .047-.449.362.362 0 0 0-.433-.133l-27.986 11.637a.378.378 0 0 0-.22.322c-.007.14.07.27.197.331l10.791 5.507Zm.094-.755-9.869-5.036 25.575-10.645-15.706 15.681Z"
        clip-rule="evenodd" />
    <path fill="#fff" d="m222.245 141.608-35.539 8.482-8.081-4.619 43.62-3.863Z" />
    <path fill="#231F20" fill-rule="evenodd"
        d="M186.501 150.397a.34.34 0 0 0 .173.047l.087-.008 35.539-8.474a.362.362 0 0 0 .268-.409.362.362 0 0 0-.386-.299l-43.62 3.863a.363.363 0 0 0-.15.669l8.089 4.611Zm.229-.7-6.963-3.974 37.626-3.297-30.663 7.271Z"
        clip-rule="evenodd" />
    <path fill="#fff" d="m186.706 150.09 2.528 11.7 5.041-8.545 27.97-11.637-35.539 8.482Z" />
    <path fill="#231F20" fill-rule="evenodd"
        d="M189.179 162.152h.055a.355.355 0 0 0 .339-.181l4.978-8.435 27.836-11.59a.356.356 0 0 0-.221-.676l-35.539 8.474a.355.355 0 0 0-.268.425l2.521 11.708a.362.362 0 0 0 .299.275Zm.213-1.345-2.261-10.457 30.837-7.357-23.834 9.914a.4.4 0 0 0-.174.149l-4.568 7.751Z"
        clip-rule="evenodd" />
    <path fill="#D1D3D4"
        d="M181.948 163.419a.393.393 0 0 1-.204-.724l1.315-.842a.396.396 0 0 1 .433.661l-1.331.85a.439.439 0 0 1-.213.055Z" />
    <path fill="#D1D3D4" fill-rule="evenodd"
        d="M22.757 139.777c.063.147.21.24.368.234a.405.405 0 0 0 .316-.142 32.365 32.365 0 0 1 2.229-2.179.395.395 0 0 0-.276-.675.387.387 0 0 0-.276.116 33.521 33.521 0 0 0-2.276 2.219.384.384 0 0 0-.085.427Zm-3.57 5.112a.41.41 0 0 1-.283-.102.387.387 0 0 1-.095-.543 42.48 42.48 0 0 1 1.906-2.541.394.394 0 0 1 .615.495 37.017 37.017 0 0 0-1.875 2.494.4.4 0 0 1-.291.197h.023Zm-3.434 5.406c.073.027.153.03.229.007l-.024-.007a.404.404 0 0 0 .323-.173c.457-.929.953-1.85 1.489-2.739a.401.401 0 0 0-.142-.543.388.388 0 0 0-.536.142 41.864 41.864 0 0 0-1.52 2.785.395.395 0 0 0 .181.528Zm-2.135 5.83a.294.294 0 0 1-.118 0 .396.396 0 0 1-.26-.496c.308-.991.67-1.998 1.072-2.99a.394.394 0 0 1 .724.299 42.15 42.15 0 0 0-1.047 2.927.378.378 0 0 1-.37.26Zm-1.425 6.129h.055a.393.393 0 0 0 .386-.362c.134-1.015.323-2.045.551-3.06a.394.394 0 0 0-.299-.472.401.401 0 0 0-.473.299 38.878 38.878 0 0 0-.559 3.147.4.4 0 0 0 .339.448Zm164.321 4.383a.394.394 0 0 1-.197-.732 270.153 270.153 0 0 0 2.717-1.573.395.395 0 0 1 .544.133.402.402 0 0 1-.134.543 94.511 94.511 0 0 1-2.733 1.574.449.449 0 0 1-.174.055h-.023Zm-164.936 1.518a.393.393 0 0 0 .394.37h.024a.394.394 0 0 0 .37-.417c-.047-.598-.047-1.211-.047-1.817v-1.283a.394.394 0 0 0-.378-.409.385.385 0 0 0-.41.378v1.314c0 .311.012.625.024.938.012.311.024.621.024.926ZM171 169.682a.387.387 0 0 1-.347-.205.402.402 0 0 1 .158-.535c.888-.472 1.731-.931 2.528-1.366l.237-.129a.395.395 0 0 1 .621.344.394.394 0 0 1-.243.341c-.867.48-1.788.983-2.773 1.511a.375.375 0 0 1-.157.039H171Zm-5.947 2.683a.386.386 0 0 0 .355.22.365.365 0 0 0 .173-.047 229.42 229.42 0 0 0 2.812-1.432.394.394 0 0 0-.362-.7c-.898.472-1.836.944-2.805 1.432a.393.393 0 0 0-.173.527Zm-152.025 2.321a.394.394 0 0 1-.378-.291 28.666 28.666 0 0 1-.693-3.108.398.398 0 1 1 .787-.126c.158 1.029.373 2.048.646 3.053a.392.392 0 0 1-.268.488l-.094-.016Zm146.386.433a.377.377 0 0 0 .354.22.404.404 0 0 0 .165-.031l2.844-1.369a.394.394 0 1 0-.347-.709c-.913.449-1.859.905-2.835 1.362a.391.391 0 0 0-.181.527Zm-5.372 2.848a.412.412 0 0 1-.363-.228.384.384 0 0 1 .205-.519l.63-.284h.001c.757-.341 1.5-.675 2.228-1.015a.395.395 0 0 1 .331.716c-.937.433-1.89.866-2.875 1.299a.353.353 0 0 1-.157.031Zm-138.636 2.549a.384.384 0 0 1-.346-.204 27.504 27.504 0 0 1-1.378-2.872.396.396 0 1 1 .732-.299c.387.958.834 1.891 1.34 2.793.1.192.03.428-.158.535a.403.403 0 0 1-.19.047Zm126.633 2.163c.093.109.236.16.377.135v.008a.48.48 0 0 0 .15-.024l2.93-1.196a.4.4 0 0 0 .212-.519.393.393 0 0 0-.512-.212l-2.922 1.156a.4.4 0 0 0-.235.652Zm-123.293 2.81a.41.41 0 0 0 .3.134v.008a.394.394 0 0 0 .29-.11.401.401 0 0 0 0-.559 26.765 26.765 0 0 1-1.937-2.416.394.394 0 1 0-.638.457 28.369 28.369 0 0 0 1.985 2.486Zm111.839 1.629a.398.398 0 0 1-.126-.787c1.001-.338 1.993-.677 2.97-1.023.206-.068.43.04.504.244a.387.387 0 0 1-.236.496c-.985.346-1.977.692-2.986 1.031l-.126.039Zm-106.9 2.73a.381.381 0 0 1-.236-.079 32.474 32.474 0 0 1-2.458-2.014.392.392 0 0 1 0-.558.386.386 0 0 1 .551 0c.768.695 1.57 1.351 2.403 1.967.174.13.209.377.078.55a.402.402 0 0 1-.338.134Zm94.511.732a.385.385 0 0 0 .366.283h-.004c.043.005.086 0 .126-.016 1.016-.283 2.024-.582 3.025-.881a.385.385 0 0 0 .267-.488.393.393 0 0 0-.488-.259l-3.017.873a.401.401 0 0 0-.275.488Zm-89.376 2.526a.423.423 0 0 0 .181.047v.016a.404.404 0 0 0 .182-.787 40.45 40.45 0 0 1-2.71-1.519.384.384 0 0 0-.543.126.394.394 0 0 0 .126.543 34.876 34.876 0 0 0 2.764 1.574Zm77.521.889a.397.397 0 0 1-.086-.787c1.024-.236 2.04-.472 3.056-.724a.393.393 0 0 1 .472.291.392.392 0 0 1-.291.48c-1.016.244-2.032.488-3.064.716l-.087.024Zm-71.534 1.621a.381.381 0 0 1-.127 0 53.497 53.497 0 0 1-2.961-1.141.397.397 0 0 1-.205-.52.393.393 0 0 1 .512-.204c.937.393 1.922.787 2.914 1.125a.4.4 0 1 1-.133.787v-.047Zm58.837.535a.385.385 0 0 0 .386.322h.071l3.104-.558a.394.394 0 0 0 .153-.711.39.39 0 0 0-.295-.061l-3.096.551a.402.402 0 0 0-.323.457Zm-52.78 1.227h-.095a71.479 71.479 0 0 1-3.064-.787.401.401 0 0 1-.268-.488.394.394 0 0 1 .489-.267c.976.275 1.992.543 3.024.787a.384.384 0 0 1 .292.472.394.394 0 0 1-.394.275l.016.008Zm46.558-.26c.03.194.197.337.394.339l.023-.008 3.151-.464a.394.394 0 0 0 .323-.457.386.386 0 0 0-.45-.322l-3.102.464a.393.393 0 0 0-.339.448Zm-5.852 1.126a.395.395 0 0 1-.377-.57.393.393 0 0 1 .33-.217c1.05-.116 2.1-.242 3.15-.378a.397.397 0 0 1 .102.787l-3.15.37-.055.008Zm-34.586.283h.039a.402.402 0 0 0 .306-.639.397.397 0 0 0-.259-.156 69.192 69.192 0 0 1-3.087-.511.4.4 0 0 0-.454.525.399.399 0 0 0 .304.261 106.7 106.7 0 0 0 3.15.52Zm28.316.322a.393.393 0 1 1 0-.786c1.047-.087 2.087-.181 3.15-.284a.41.41 0 0 1 .434.354.395.395 0 0 1-.355.433c-1.05.1-2.1.194-3.15.283h-.08Zm-25.15.071c1.032.11 2.08.205 3.15.283h.087a.393.393 0 1 0 0-.786 108.282 108.282 0 0 1-3.15-.276.38.38 0 0 0-.434.346.393.393 0 0 0 .347.433Zm18.864.339a.387.387 0 0 1-.386-.37.395.395 0 0 1 .37-.417c1.048-.047 2.096-.11 3.151-.181a.385.385 0 0 1 .418.37.385.385 0 0 1-.362.417c-1.048.07-2.096.133-3.151.181h-.04Zm-12.227.14c.906.036 1.835.072 2.776.072h.007a.403.403 0 0 0 .418-.393.395.395 0 0 0-.394-.394c-1.08-.016-2.127-.047-3.15-.086a.39.39 0 0 0-.41.377.4.4 0 0 0 .378.409l.375.015Zm5.532-.321a.401.401 0 0 0 .394.393h.008l1.883-.039 1.268-.04a.393.393 0 0 0 .386-.409.41.41 0 0 0-.41-.378l-1.268.04-1.875.039a.393.393 0 0 0-.386.394Zm37.477-4.076c.04.181.2.312.386.315l.079-.008 3.087-.645a.386.386 0 0 0 .3-.465.393.393 0 0 0-.465-.307l-3.08.646a.39.39 0 0 0-.307.464Zm12.256-2.841a.397.397 0 0 0 .43.348c.037.01.076.009.113-.001 1.024-.252 2.04-.514 3.049-.787a.408.408 0 0 0 .187-.679.407.407 0 0 0-.392-.108l-3.041.787a.396.396 0 0 0-.346.44Zm12.169-3.375a.378.378 0 0 0 .37.275v.008a.314.314 0 0 0 .118-.023 233.56 233.56 0 0 0 3.009-.952.393.393 0 0 0 .252-.496.382.382 0 0 0-.496-.252l-.818.261c-.721.23-1.444.461-2.175.683a.396.396 0 0 0-.26.496Zm12.303-3.745a.41.41 0 0 1-.37-.26.394.394 0 0 1 .236-.504 191.06 191.06 0 0 0 2.01-.742l.003-.001h.001l.94-.35a.393.393 0 0 1 .276.732c-.977.369-1.961.731-2.962 1.093a.263.263 0 0 1-.134.04v-.008Zm11.374-4.824c.057.15.202.248.362.244a.337.337 0 0 0 .15-.031l2.906-1.228a.395.395 0 1 0-.315-.723c-.702.327-1.418.62-2.144.917-.25.102-.502.205-.754.31a.394.394 0 0 0-.205.511Z"
        clip-rule="evenodd" />
    <path fill="#D1D3D4"
        d="M27.836 135.77a.385.385 0 0 1-.307-.15.4.4 0 0 1 .07-.558c.426-.315.851-.63 1.284-.937a.393.393 0 1 1 .45.646c-.426.299-.843.606-1.253.92a.391.391 0 0 1-.244.079ZM204.475 88.757a.353.353 0 0 1-.267-.11.386.386 0 0 1 0-.55s.386-.41 1.055-1.15a.394.394 0 1 1 .583.52c-.677.787-1.071 1.172-1.071 1.172a.387.387 0 0 1-.3.118Z" />
    <path fill="#D1D3D4" fill-rule="evenodd"
        d="M205.303 17.243h.07v-.024a.385.385 0 0 0 .386-.299.4.4 0 0 0-.323-.456 28.377 28.377 0 0 0-3.197-.362.37.37 0 0 0-.418.37.397.397 0 0 0 .098.285c.07.078.168.126.272.132 1.043.057 2.082.175 3.112.354Zm6.135 1.85a.424.424 0 0 1-.165 0c-.949-.432-1.925-.8-2.922-1.102a.41.41 0 1 1 .228-.787c1.033.309 2.043.687 3.025 1.133a.387.387 0 0 1 .189.519.386.386 0 0 1-.355.212v.024Zm5.041 3.343c.074.06.166.093.26.095v-.024a.403.403 0 0 0 .268-.102.401.401 0 0 0 0-.56 21.501 21.501 0 0 0-2.576-1.958.393.393 0 1 0-.425.66 20.496 20.496 0 0 1 2.473 1.89Zm4.309 4.95a.402.402 0 0 1-.339-.182 21.96 21.96 0 0 0-1.811-2.533.392.392 0 0 1 .055-.551.383.383 0 0 1 .551.047c.684.821 1.31 1.689 1.875 2.597a.387.387 0 0 1-.331.598v.023Zm2.253 5.483c.054.162.207.27.378.268v-.024a.37.37 0 0 0 .126.008.394.394 0 0 0 .244-.496c-.33-1.02-.717-2.02-1.158-2.997a.395.395 0 0 0-.717.33c.429.95.805 1.921 1.127 2.911Zm1.803 6.437a.402.402 0 0 1-.394-.339 36.395 36.395 0 0 0-.575-3.084.404.404 0 0 1 .788-.173c.228 1.007.425 2.07.583 3.147a.402.402 0 0 1-.331.449h-.071Zm.118 5.909c.005.214.18.385.394.385h.008a.401.401 0 0 0 .386-.401 59.9 59.9 0 0 0-.157-3.187.398.398 0 0 0-.695-.23.385.385 0 0 0-.093.285c.079 1.023.157 2.078.157 3.148Zm.213 6.727h-.039a.394.394 0 0 1-.355-.425c0-.189.021-.374.041-.56.016-.141.031-.282.038-.424 0-.445.026-.888.052-1.324.017-.28.033-.558.043-.831a.386.386 0 0 1 .401-.386.401.401 0 0 1 .386.401c0 .545-.032 1.095-.064 1.657-.011.175-.021.352-.03.53 0 .252-.026.5-.053.749l-.026.259a.402.402 0 0 1-.394.354Zm-1.441 6.2h.149a.402.402 0 0 0 .363-.22 63.01 63.01 0 0 0 .787-3.148.394.394 0 0 0-.772-.165 34.325 34.325 0 0 1-.787 3.037.401.401 0 0 0 .26.496Zm-2.174 5.917a.41.41 0 0 1-.166 0 .386.386 0 0 1-.189-.52 51.16 51.16 0 0 0 1.229-2.903.393.393 0 0 1 .512-.228.4.4 0 0 1 .228.511c-.378.96-.787 1.952-1.252 2.943a.41.41 0 0 1-.331.197h-.031Zm-3.119 5.586a.352.352 0 0 0 .197.055h.031a.394.394 0 0 0 .307-.196 65.688 65.688 0 0 0 1.536-2.801.394.394 0 0 0-.701-.362 66.14 66.14 0 0 1-1.512 2.77.388.388 0 0 0-.043.297c.027.1.094.186.185.237Zm-3.175 5.437a.385.385 0 0 1-.323-.613 90.89 90.89 0 0 0 1.725-2.652.403.403 0 0 1 .544-.126c.182.118.235.36.118.543a92.412 92.412 0 0 1-1.733 2.675.394.394 0 0 1-.299.173h-.032Zm-3.938 5.091a.45.45 0 0 0 .236.079l.032.016a.384.384 0 0 0 .283-.174c.623-.81 1.253-1.668 1.899-2.565a.395.395 0 1 0-.646-.456 92.853 92.853 0 0 1-1.875 2.541.401.401 0 0 0 .071.559Zm-3.962 4.941a.41.41 0 0 0 .26.095c.13.013.257-.04.339-.142a99.032 99.032 0 0 0 2.024-2.463.382.382 0 0 0 .085-.288.394.394 0 0 0-.699-.2c-.341.41-.67.815-.987 1.204-.358.44-.7.86-1.022 1.244a.386.386 0 0 0 0 .55Z"
        clip-rule="evenodd" />
    <path fill="#D1D3D4"
        d="M197.442 17.015a.395.395 0 1 1-.063-.787 14.285 14.285 0 0 1 1.575-.157.394.394 0 1 1 .047.787c-.953.055-1.52.141-1.52.141l-.039.016Z" />
    <path fill="#fff"
        d="M1.968 52.015a2.578 2.578 0 0 1 .365-3.63l22.852-18.658a2.578 2.578 0 0 1 3.626.365l9.231 11.282a2.578 2.578 0 0 1-.365 3.63L14.825 63.662a2.578 2.578 0 0 1-3.626-.365L1.968 52.015Z" />
    <path fill="#D1D3D4" fill-rule="evenodd"
        d="M12.878 64.87h.244a2.364 2.364 0 0 0 1.513-.544L38.382 44.94a2.36 2.36 0 0 0 .34-3.36l-9.973-12.188a2.363 2.363 0 0 0-3.363-.338L1.638 48.448a2.36 2.36 0 0 0-.338 3.36l10.003 12.196c.39.484.956.795 1.575.865Zm13.004-35.211c.29-.228.648-.353 1.016-.354.487 0 .946.223 1.245.606l9.972 12.164a1.573 1.573 0 0 1-.229 2.25L14.154 63.72c-.33.267-.751.394-1.174.355a1.576 1.576 0 0 1-1.079-.583L1.93 51.312a1.644 1.644 0 0 1-.355-1.18c.035-.42.236-.808.56-1.078L25.882 29.66Z"
        clip-rule="evenodd" />
    <path fill="#D1D3D4"
        d="M1.182 50.368a.394.394 0 0 1-.394-.393.385.385 0 0 1 .354-.425l19.794-1.715L26.56 28.8a.385.385 0 0 1 .488-.267.393.393 0 0 1 .26.488l-5.687 19.293a.386.386 0 0 1-.338.283L1.22 50.368h-.04Z" />
    <path fill="#D1D3D4"
        d="M22.055 45.773a.394.394 0 1 1 0-.787L38.8 43.074a.402.402 0 0 1 .433.347.393.393 0 0 1-.346.44l-16.762 1.912h-.07ZM13.099 64.87a.317.317 0 0 1-.118 0 .386.386 0 0 1-.252-.496l5.206-16.012a.412.412 0 0 1 .788.244l-5.207 16.012a.402.402 0 0 1-.417.251Z" />
    <path fill="#fff"
        d="M214.901 105.88a2.071 2.071 0 0 1 2.722-1.076l21.775 9.431a2.07 2.07 0 0 1 1.076 2.725l-4.667 10.754a2.071 2.071 0 0 1-2.723 1.076l-21.774-9.431a2.071 2.071 0 0 1-1.077-2.724l4.668-10.755Z" />
    <path fill="#D1D3D4" fill-rule="evenodd"
        d="M233.374 129.326c.249.107.517.163.788.165.255-.008.506-.064.74-.165a1.98 1.98 0 0 0 1.095-1.062l5.041-11.59a1.973 1.973 0 0 0 0-1.527 1.996 1.996 0 0 0-1.063-1.101l-22.629-9.796a2.01 2.01 0 0 0-2.631 1.038l-5.033 11.606a2.027 2.027 0 0 0 0 1.534c.195.494.581.888 1.071 1.094l22.621 9.804Zm-17.879-23.723c.191-.443.627-.73 1.11-.732.155.003.308.038.449.103l22.614 9.803c.298.125.532.367.646.669.122.295.122.626 0 .921l-5.041 11.613a1.186 1.186 0 0 1-.662.646 1.234 1.234 0 0 1-.929 0l-22.63-9.804a1.204 1.204 0 0 1-.63-1.574l5.073-11.645Z"
        clip-rule="evenodd" />
    <path fill="#D1D3D4"
        d="M224.742 118.617a.377.377 0 0 1-.331-.181l-8.664-13.675a.394.394 0 0 1 .669-.417l8.491 13.447 15.635-2.998a.387.387 0 0 1 .465.307.4.4 0 0 1-.315.464l-15.895 3.053h-.055Z" />
    <path fill="#D1D3D4"
        d="M234.619 129.42a.401.401 0 0 1-.331-.173l-7.546-11.212a.394.394 0 0 1 .406-.603.386.386 0 0 1 .248.17l7.546 11.244a.402.402 0 0 1-.11.551.418.418 0 0 1-.213.023ZM210.107 118.822a.39.39 0 0 1-.321-.624.391.391 0 0 1 .258-.155l13.39-2.188a.4.4 0 0 1 .436.536.398.398 0 0 1-.31.251l-13.39 2.188-.063-.008Z" />
    <path fill="#fff"
        d="M63.365 13.685a1.512 1.512 0 0 1 1.91-.96l16.47 5.455a1.512 1.512 0 0 1 .96 1.912l-2.7 8.137a1.512 1.512 0 0 1-1.91.96l-16.47-5.454a1.512 1.512 0 0 1-.96-1.912l2.7-8.138Z" />
    <path fill="#D1D3D4" fill-rule="evenodd"
        d="M78.277 29.659a1.573 1.573 0 0 0 1.985-1l2.906-8.78a1.573 1.573 0 0 0-.992-1.983L65.06 12.231a1.576 1.576 0 0 0-1.977 1l-2.914 8.78a1.572 1.572 0 0 0 .992 1.983l17.116 5.665Zm.843-.747a.788.788 0 0 1-.599 0L61.43 23.286a.787.787 0 0 1-.457-.386.826.826 0 0 1 0-.598l2.915-8.78a.787.787 0 0 1 .386-.45.789.789 0 0 1 .598-.046l17.116 5.665a.787.787 0 0 1 .449.393.786.786 0 0 1 0 .598l-2.922 8.773a.787.787 0 0 1-.394.457Z"
        clip-rule="evenodd" />
    <path fill="#D1D3D4"
        d="M71.322 22.436a.402.402 0 0 1-.315-.157L63.8 12.884a.393.393 0 0 1 .622-.48l7.018 9.182 11.122-3.147a.395.395 0 0 1 .488.275.393.393 0 0 1-.275.48L71.4 22.452l-.079-.016Z" />
    <path fill="#D1D3D4"
        d="M79.215 29.659a.378.378 0 0 1-.308-.15l-6.222-7.695a.394.394 0 1 1 .614-.495l6.223 7.703a.393.393 0 0 1-.308.637ZM60.65 23.522a.397.397 0 1 1-.095-.787l9.594-2.455a.394.394 0 0 1 .438.579.386.386 0 0 1-.242.176l-9.593 2.463-.102.024Z" />
</svg>
